SourceSerif_2.ufo
<glyph name="parenleft" format="2">
	<unicode hex="0028"/>
	<advance width="393"/>
	<outline>
		<contour>
			<point x="205" y="278" type="curve" smooth="yes"/>
			<point x="205" y="433"/>
			<point x="254" y="541"/>
			<point x="363" y="666" type="curve"/>
			<point x="308" y="714" type="line"/>
			<point x="156" y="603"/>
			<point x="70" y="456"/>
			<point x="70" y="278" type="curve" smooth="yes"/>
			<point x="70" y="100"/>
			<point x="156" y="-47"/>
			<point x="308" y="-158" type="curve"/>
			<point x="363" y="-110" type="line"/>
			<point x="254" y="15"/>
			<point x="205" y="123"/>
		</contour>
	</outline>
</glyph>
<glyph name="J" format="2">
	<unicode hex="004A"/>
	<advance width="404"/>
	<outline>
		<contour>
			<point x="-74" y="-154"/>
			<point x="-31" y="-177"/>
			<point x="31" y="-177" type="curve" smooth="yes"/>
			<point x="102" y="-177"/>
			<point x="159" y="-154"/>
			<point x="213" y="-100" type="curve" smooth="yes"/>
			<point x="286" y="-27"/>
			<point x="308" y="100"/>
			<point x="308" y="272" type="curve" smooth="yes"/>
			<point x="308" y="355" type="line" smooth="yes"/>
			<point x="308" y="455"/>
			<point x="308" y="555"/>
			<point x="311" y="652" type="curve"/>
			<point x="107" y="652" type="line"/>
			<point x="111" y="373"/>
			<point x="115" y="163"/>
			<point x="115" y="49" type="curve" smooth="yes"/>
			<point x="115" y="-40"/>
			<point x="111" y="-97"/>
			<point x="96" y="-125" type="curve"/>
			<point x="93" y="-136" type="line"/>
			<point x="101" y="-140" type="line"/>
			<point x="114" y="-135" type="line"/>
			<point x="82" y="-90" type="line" smooth="yes"/>
			<point x="50" y="-46"/>
			<point x="22" y="-24"/>
			<point x="-16" y="-24" type="curve" smooth="yes"/>
			<point x="-65" y="-24"/>
			<point x="-103" y="-59"/>
			<point x="-103" y="-108" type="curve"/>
		</contour>
		<contour>
			<point x="30" y="593" type="line"/>
			<point x="177" y="578" type="line"/>
			<point x="223" y="578" type="line"/>
			<point x="379" y="593" type="line"/>
			<point x="379" y="652" type="line"/>
			<point x="30" y="652" type="line"/>
		</contour>
	</outline>
	<anchor name="aboveUC" x="203" y="682"/>
	<anchor name="belowLC" x="117" y="-169"/>
</glyph>
<glyph name="W" format="1">
	<unicode hex="0057"/>
	<advance width="989"/>
	<outline>
		<contour>
			<point x="902" y="578" type="line"/>
			<point x="989" y="593" type="line"/>
			<point x="989" y="652" type="line"/>
			<point x="784" y="652" type="line"/>
			<point x="784" y="593" type="line"/>
			<point x="873" y="578" type="line"/>
		</contour>
		<contour>
			<point x="591" y="578" type="line"/>
			<point x="715" y="593" type="line"/>
			<point x="715" y="652" type="line"/>
			<point x="404" y="652" type="line"/>
			<point x="404" y="593" type="line"/>
			<point x="524" y="578" type="line"/>
		</contour>
		<contour>
			<point x="189" y="578" type="line"/>
			<point x="331" y="593" type="line"/>
			<point x="331" y="652" type="line"/>
			<point x="5" y="652" type="line"/>
			<point x="5" y="593" type="line"/>
			<point x="150" y="578" type="line"/>
		</contour>
		<contour>
			<point x="613" y="0" type="line"/>
			<point x="733" y="0" type="line"/>
			<point x="935" y="652" type="line"/>
			<point x="866" y="652" type="line"/>
			<point x="736" y="199" type="line"/>
			<point x="614" y="652" type="line"/>
			<point x="485" y="652" type="line"/>
			<point x="359" y="208" type="line"/>
			<point x="248" y="652" type="line"/>
			<point x="38" y="652" type="line"/>
			<point x="236" y="0" type="line"/>
			<point x="356" y="0" type="line"/>
			<point x="485" y="430" type="line"/>
		</contour>
		<contour>
			<point name="aboveUC" x="553" y="682" type="move"/>
		</contour>
		<contour>
			<point name="belowLC" x="492" y="-22" type="move"/>
		</contour>
	</outline>
</glyph>
<glyph name="Z" format="2">
	<unicode hex="005A"/>
	<advance width="568"/>
	<outline>
		<contour>
			<point x="116" y="463" type="line"/>
			<point x="142" y="592" type="line"/>
			<point x="318" y="592" type="line"/>
			<point x="20" y="50" type="line"/>
			<point x="20" y="0" type="line"/>
			<point x="540" y="0" type="line"/>
			<point x="548" y="189" type="line"/>
			<point x="460" y="189" type="line"/>
			<point x="435" y="60" type="line"/>
			<point x="244" y="60" type="line"/>
			<point x="542" y="602" type="line"/>
			<point x="542" y="652" type="line"/>
			<point x="38" y="652" type="line"/>
			<point x="30" y="463" type="line"/>
		</contour>
	</outline>
	<anchor name="aboveUC" x="299" y="682"/>
	<anchor name="belowLC" x="292" y="-22"/>
</glyph>
<glyph name="g" format="2">
	<unicode hex="0067"/>
	<advance width="553"/>
	<outline>
		<contour>
			<point x="7" y="-164"/>
			<point x="50" y="-222"/>
			<point x="224" y="-222" type="curve" smooth="yes"/>
			<point x="428" y="-222"/>
			<point x="537" y="-138"/>
			<point x="537" y="-30" type="curve" smooth="yes"/>
			<point x="537" y="59"/>
			<point x="483" y="123"/>
			<point x="313" y="123" type="curve" smooth="yes"/>
			<point x="202" y="123" type="line" smooth="yes"/>
			<point x="161" y="123"/>
			<point x="144" y="136"/>
			<point x="144" y="158" type="curve" smooth="yes"/>
			<point x="144" y="181"/>
			<point x="149" y="195"/>
			<point x="158" y="210" type="curve"/>
			<point x="118" y="229" type="line"/>
			<point x="118" y="218" type="line"/>
			<point x="64" y="175"/>
			<point x="28" y="129"/>
			<point x="28" y="74" type="curve" smooth="yes"/>
			<point x="28" y="38"/>
			<point x="47" y="4"/>
			<point x="98" y="-14" type="curve"/>
			<point x="98" y="-22" type="line"/>
			<point x="128" y="-37"/>
			<point x="173" y="-42"/>
			<point x="227" y="-42" type="curve" smooth="yes"/>
			<point x="327" y="-42" type="line" smooth="yes"/>
			<point x="374" y="-42"/>
			<point x="390" y="-68"/>
			<point x="390" y="-91" type="curve" smooth="yes"/>
			<point x="390" y="-129"/>
			<point x="342" y="-157"/>
			<point x="245" y="-157" type="curve" smooth="yes"/>
			<point x="149" y="-157"/>
			<point x="110" y="-132"/>
			<point x="110" y="-75" type="curve" smooth="yes"/>
			<point x="110" y="-46"/>
			<point x="115" y="-35"/>
			<point x="129" y="-8" type="curve"/>
			<point x="111" y="2" type="line"/>
			<point x="45" y="-18"/>
			<point x="7" y="-58"/>
			<point x="7" y="-107" type="curve" smooth="yes"/>
		</contour>
		<contour>
			<point x="28" y="257"/>
			<point x="91" y="184"/>
			<point x="249" y="184" type="curve" smooth="yes"/>
			<point x="407" y="184"/>
			<point x="470" y="258"/>
			<point x="470" y="342" type="curve" smooth="yes"/>
			<point x="470" y="431"/>
			<point x="407" y="503"/>
			<point x="249" y="503" type="curve" smooth="yes"/>
			<point x="91" y="503"/>
			<point x="28" y="430"/>
			<point x="28" y="342" type="curve" smooth="yes"/>
		</contour>
		<contour>
			<point x="305" y="274"/>
			<point x="289" y="234"/>
			<point x="249" y="234" type="curve" smooth="yes"/>
			<point x="209" y="234"/>
			<point x="195" y="274"/>
			<point x="195" y="344" type="curve" smooth="yes"/>
			<point x="195" y="414"/>
			<point x="212" y="453"/>
			<point x="249" y="453" type="curve" smooth="yes"/>
			<point x="286" y="453"/>
			<point x="305" y="414"/>
			<point x="305" y="344" type="curve" smooth="yes"/>
		</contour>
		<contour>
			<point x="398" y="413" type="line"/>
			<point x="548" y="413" type="line"/>
			<point x="548" y="496" type="line"/>
			<point x="532" y="506" type="line"/>
			<point x="406" y="448" type="line"/>
			<point x="398" y="448" type="line"/>
		</contour>
	</outline>
	<anchor name="aboveLC" x="262" y="520"/>
	<anchor name="belowLC" x="256" y="-230"/>
</glyph>
<glyph name="w" format="1">
	<unicode hex="0077"/>
	<advance width="800"/>
	<outline>
		<contour>
			<point x="417" y="425" type="line"/>
			<point x="468" y="425" type="line"/>
			<point x="565" y="440" type="line"/>
			<point x="565" y="487" type="line"/>
			<point x="311" y="487" type="line"/>
			<point x="311" y="440" type="line"/>
		</contour>
		<contour>
			<point x="152" y="425" type="line"/>
			<point x="268" y="440" type="line"/>
			<point x="268" y="487" type="line"/>
			<point x="-10" y="487" type="line"/>
			<point x="-10" y="440" type="line"/>
			<point x="87" y="425" type="line"/>
		</contour>
		<contour>
			<point x="708" y="429" type="line"/>
			<point x="795" y="440" type="line"/>
			<point x="795" y="487" type="line"/>
			<point x="613" y="487" type="line"/>
			<point x="613" y="440" type="line"/>
			<point x="692" y="429" type="line"/>
		</contour>
		<contour>
			<point x="381" y="487" type="line"/>
			<point x="286" y="198" type="line"/>
			<point x="202" y="487" type="line"/>
			<point x="10" y="487" type="line"/>
			<point x="186" y="0" type="line"/>
			<point x="276" y="0" type="line"/>
			<point x="383" y="308" type="line"/>
			<point x="492" y="0" type="line"/>
			<point x="582" y="0" type="line"/>
			<point x="757" y="487" type="line"/>
			<point x="681" y="487" type="line"/>
			<point x="588" y="206" type="line"/>
			<point x="502" y="487" type="line"/>
		</contour>
		<contour>
			<point name="aboveLC" x="424" y="520" type="move"/>
		</contour>
		<contour>
			<point name="belowLC" x="401" y="-22" type="move"/>
		</contour>
	</outline>
</glyph>
<glyph name="z" format="2">
	<unicode hex="007A"/>
	<advance width="468"/>
	<outline>
		<contour>
			<point x="28" y="487" type="line"/>
			<point x="20" y="333" type="line"/>
			<point x="112" y="329" type="line"/>
			<point x="139" y="440" type="line"/>
			<point x="249" y="440" type="line"/>
			<point x="14" y="41" type="line"/>
			<point x="14" y="0" type="line"/>
			<point x="448" y="0" type="line"/>
			<point x="458" y="169" type="line"/>
			<point x="365" y="169" type="line"/>
			<point x="336" y="48" type="line"/>
			<point x="226" y="48" type="line"/>
			<point x="450" y="447" type="line"/>
			<point x="450" y="487" type="line"/>
		</contour>
	</outline>
	<anchor name="aboveLC" x="249" y="520"/>
	<anchor name="belowLC" x="246" y="-22"/>
</glyph>
<glyph name="multiply" format="2">
	<unicode hex="00D7"/>
	<advance width="550"/>
	<outline>
		<contour>
			<point x="440" y="82" type="line"/>
			<point x="513" y="155" type="line"/>
			<point x="110" y="558" type="line"/>
			<point x="37" y="485" type="line"/>
		</contour>
		<contour>
			<point x="513" y="485" type="line"/>
			<point x="440" y="558" type="line"/>
			<point x="37" y="155" type="line"/>
			<point x="110" y="82" type="line"/>
		</contour>
	</outline>
</glyph>
<glyph name="idieresis" format="2">
	<unicode hex="00EF"/>
	<advance width="324"/>
	<outline>
		<contour>
			<point x="62" y="567" type="curve" smooth="yes"/>
			<point x="107" y="567"/>
			<point x="146" y="595"/>
			<point x="146" y="646" type="curve" smooth="yes"/>
			<point x="146" y="696"/>
			<point x="107" y="725"/>
			<point x="62" y="725" type="curve" smooth="yes"/>
			<point x="19" y="725"/>
			<point x="-22" y="696"/>
			<point x="-22" y="646" type="curve" smooth="yes"/>
			<point x="-22" y="595"/>
			<point x="19" y="567"/>
		</contour>
		<contour>
			<point x="284" y="567" type="curve" smooth="yes"/>
			<point x="329" y="567"/>
			<point x="368" y="595"/>
			<point x="368" y="646" type="curve" smooth="yes"/>
			<point x="368" y="696"/>
			<point x="329" y="725"/>
			<point x="284" y="725" type="curve" smooth="yes"/>
			<point x="241" y="725"/>
			<point x="200" y="696"/>
			<point x="200" y="646" type="curve" smooth="yes"/>
			<point x="200" y="595"/>
			<point x="241" y="567"/>
		</contour>
		<component base="dotlessi"/>
	</outline>
</glyph>
<glyph name="dcaron" format="1">
	<unicode hex="010F"/>
	<advance width="615"/>
	<outline>
		<contour>
			<point x="661" y="731" type="curve" smooth="yes"/>
			<point x="641" y="731"/>
			<point x="623" y="726"/>
			<point x="601" y="713" type="curve"/>
			<point x="596" y="514" type="line"/>
			<point x="651" y="514" type="line"/>
			<point x="684" y="579" type="line" smooth="yes"/>
			<point x="703" y="617"/>
			<point x="714" y="651"/>
			<point x="714" y="679" type="curve" smooth="yes"/>
			<point x="714" y="710"/>
			<point x="704" y="731"/>
		</contour>
		<component base="d"/>
	</outline>
</glyph>
<glyph name="gcommaaccent" format="1">
	<unicode hex="0123"/>
	<advance width="553"/>
	<outline>
		<contour>
			<point x="171" y="642" type="curve" smooth="yes"/>
			<point x="171" y="623"/>
			<point x="174" y="608"/>
			<point x="181" y="588" type="curve"/>
			<point x="212" y="569"/>
			<point x="230" y="565"/>
			<point x="254" y="565" type="curve" smooth="yes"/>
			<point x="300" y="565"/>
			<point x="336" y="595"/>
			<point x="336" y="636" type="curve" smooth="yes"/>
			<point x="336" y="675"/>
			<point x="306" y="702"/>
			<point x="257" y="721" type="curve"/>
			<point x="234" y="653" type="line"/>
			<point x="260" y="707"/>
			<point x="289" y="722"/>
			<point x="344" y="745" type="curve"/>
			<point x="327" y="789" type="line"/>
			<point x="240" y="760"/>
			<point x="171" y="709"/>
		</contour>
		<component base="g"/>
	</outline>
</glyph>
<glyph name="eng" format="2">
	<unicode hex="014B"/>
	<advance width="620"/>
	<outline>
		<contour>
			<point x="263" y="0" type="line"/>
			<point x="261" y="45"/>
			<point x="260" y="148"/>
			<point x="260" y="210" type="curve" smooth="yes"/>
			<point x="260" y="383" type="line"/>
			<point x="252" y="492" type="line"/>
			<point x="234" y="503" type="line"/>
			<point x="13" y="434" type="line"/>
			<point x="13" y="393" type="line"/>
			<point x="67" y="384" type="line"/>
			<point x="69" y="344"/>
			<point x="70" y="327"/>
			<point x="70" y="272" type="curve" smooth="yes"/>
			<point x="70" y="210" type="line" smooth="yes"/>
			<point x="70" y="148"/>
			<point x="69" y="45"/>
			<point x="67" y="0" type="curve"/>
		</contour>
		<contour>
			<point x="207" y="71" type="line"/>
			<point x="109" y="71" type="line"/>
			<point x="23" y="51" type="line"/>
			<point x="23" y="0" type="line"/>
			<point x="299" y="0" type="line"/>
			<point x="299" y="51" type="line"/>
		</contour>
		<contour>
			<point x="312" y="-232" type="curve" smooth="yes"/>
			<point x="360" y="-232"/>
			<point x="435" y="-218"/>
			<point x="493" y="-160" type="curve" smooth="yes"/>
			<point x="543" y="-110"/>
			<point x="560" y="-67"/>
			<point x="560" y="35" type="curve" smooth="yes"/>
			<point x="560" y="336" type="line" smooth="yes"/>
			<point x="560" y="445"/>
			<point x="496" y="503"/>
			<point x="409" y="503" type="curve" smooth="yes"/>
			<point x="337" y="503"/>
			<point x="289" y="477"/>
			<point x="210" y="361" type="curve"/>
			<point x="211" y="321" type="line"/>
			<point x="244" y="367"/>
			<point x="295" y="396"/>
			<point x="325" y="396" type="curve" smooth="yes"/>
			<point x="357" y="396"/>
			<point x="370" y="376"/>
			<point x="370" y="323" type="curve" smooth="yes"/>
			<point x="370" y="76" type="line" smooth="yes"/>
			<point x="370" y="10"/>
			<point x="382" y="-89"/>
			<point x="373" y="-140" type="curve" smooth="yes"/>
			<point x="366" y="-179"/>
			<point x="346" y="-194"/>
			<point x="312" y="-194" type="curve"/>
			<point x="338" y="-218" type="line"/>
			<point x="390" y="-208" type="line"/>
			<point x="359" y="-142" type="line" smooth="yes"/>
			<point x="337" y="-95"/>
			<point x="301" y="-72"/>
			<point x="262" y="-72" type="curve" smooth="yes"/>
			<point x="218" y="-72"/>
			<point x="171" y="-103"/>
			<point x="168" y="-158" type="curve"/>
			<point x="189" y="-198"/>
			<point x="236" y="-232"/>
		</contour>
	</outline>
</glyph>
<glyph name="tcaron" format="1">
	<unicode hex="0165"/>
	<advance width="372"/>
	<outline>
		<contour>
			<point x="375" y="741" type="curve" smooth="yes"/>
			<point x="355" y="741"/>
			<point x="337" y="736"/>
			<point x="315" y="723" type="curve"/>
			<point x="310" y="524" type="line"/>
			<point x="365" y="524" type="line"/>
			<point x="398" y="589" type="line" smooth="yes"/>
			<point x="417" y="627"/>
			<point x="428" y="661"/>
			<point x="428" y="689" type="curve" smooth="yes"/>
			<point x="428" y="720"/>
			<point x="418" y="741"/>
		</contour>
		<component base="t"/>
	</outline>
</glyph>
<glyph name="uogonek" format="2">
	<unicode hex="0173"/>
	<advance width="617"/>
	<outline>
		<contour>
			<point x="361" y="-127" type="curve" smooth="yes"/>
			<point x="361" y="-182"/>
			<point x="402" y="-227"/>
			<point x="479" y="-227" type="curve" smooth="yes"/>
			<point x="536" y="-227"/>
			<point x="589" y="-209"/>
			<point x="623" y="-177" type="curve"/>
			<point x="608" y="-126" type="line"/>
			<point x="594" y="-130"/>
			<point x="579" y="-134"/>
			<point x="553" y="-134" type="curve" smooth="yes"/>
			<point x="509" y="-134"/>
			<point x="481" y="-109"/>
			<point x="481" y="-69" type="curve" smooth="yes"/>
			<point x="481" y="-38"/>
			<point x="493" y="-13"/>
			<point x="532" y="8" type="curve"/>
			<point x="486" y="8" type="line"/>
			<point x="407" y="-22"/>
			<point x="361" y="-62"/>
		</contour>
		<component base="u"/>
	</outline>
	<anchor name="aboveLC" x="313" y="520"/>
	<anchor name="belowLC" x="316" y="-22"/>
	<anchor name="hornLC" x="546" y="466"/>
</glyph>
<glyph name="longs" format="1">
	<unicode hex="017F"/>
	<advance width="365"/>
	<outline>
		<contour>
			<point x="255" y="71" type="line"/>
			<point x="121" y="71" type="line"/>
			<point x="28" y="51" type="line"/>
			<point x="28" y="0" type="line"/>
			<point x="338" y="0" type="line"/>
			<point x="338" y="51" type="line"/>
		</contour>
		<contour>
			<point x="74" y="210" type="line" smooth="yes"/>
			<point x="74" y="140"/>
			<point x="73" y="70"/>
			<point x="71" y="0" type="curve"/>
			<point x="267" y="0" type="line"/>
			<point x="265" y="70"/>
			<point x="264" y="140"/>
			<point x="264" y="210" type="curve" smooth="yes"/>
			<point x="264" y="404" type="line" smooth="yes"/>
			<point x="264" y="519"/>
			<point x="259" y="598"/>
			<point x="287" y="654" type="curve" smooth="yes"/>
			<point x="297" y="674"/>
			<point x="308" y="690"/>
			<point x="356" y="712" type="curve"/>
			<point x="289" y="699" type="line"/>
			<point x="302" y="665" type="line" smooth="yes"/>
			<point x="327" y="600"/>
			<point x="359" y="572"/>
			<point x="396" y="572" type="curve" smooth="yes"/>
			<point x="444" y="572"/>
			<point x="472" y="604"/>
			<point x="472" y="647" type="curve"/>
			<point x="459" y="707"/>
			<point x="402" y="731"/>
			<point x="343" y="731" type="curve" smooth="yes"/>
			<point x="281" y="731"/>
			<point x="221" y="712"/>
			<point x="165" y="663" type="curve" smooth="yes"/>
			<point x="125" y="628"/>
			<point x="74" y="574"/>
			<point x="74" y="459" type="curve" smooth="yes"/>
		</contour>
	</outline>
</glyph>
<glyph name="j.sups" format="2">
	<unicode hex="02B2"/>
	<advance width="200"/>
	<outline>
		<contour>
			<point x="109" y="782" type="curve" smooth="yes"/>
			<point x="142" y="782"/>
			<point x="169" y="805"/>
			<point x="169" y="835" type="curve" smooth="yes"/>
			<point x="169" y="866"/>
			<point x="142" y="888"/>
			<point x="109" y="888" type="curve" smooth="yes"/>
			<point x="77" y="888"/>
			<point x="48" y="866"/>
			<point x="48" y="835" type="curve" smooth="yes"/>
			<point x="48" y="805"/>
			<point x="77" y="782"/>
		</contour>
		<contour>
			<point x="54" y="454" type="line" smooth="yes"/>
			<point x="54" y="388"/>
			<point x="58" y="332"/>
			<point x="45" y="304" type="curve" smooth="yes"/>
			<point x="39" y="291"/>
			<point x="27" y="274"/>
			<point x="9" y="274" type="curve"/>
			<point x="24" y="260" type="line"/>
			<point x="64" y="268" type="line"/>
			<point x="40" y="304" type="line" smooth="yes"/>
			<point x="22" y="333"/>
			<point x="0" y="343"/>
			<point x="-27" y="343" type="curve" smooth="yes"/>
			<point x="-55" y="343"/>
			<point x="-77" y="324"/>
			<point x="-80" y="295" type="curve"/>
			<point x="-69" y="272"/>
			<point x="-42" y="250"/>
			<point x="10" y="250" type="curve" smooth="yes"/>
			<point x="42" y="250"/>
			<point x="87" y="258"/>
			<point x="121" y="292" type="curve" smooth="yes"/>
			<point x="156" y="327"/>
			<point x="165" y="364"/>
			<point x="165" y="440" type="curve" smooth="yes"/>
			<point x="165" y="724" type="line"/>
			<point x="154" y="731" type="line"/>
			<point x="12" y="688" type="line"/>
			<point x="12" y="663" type="line"/>
			<point x="54" y="657" type="line"/>
		</contour>
	</outline>
</glyph>
<glyph name="s.sups" format="2">
	<unicode hex="02E2"/>
	<advance width="301"/>
	<outline>
		<contour>
			<point x="133" y="396" type="curve" smooth="yes"/>
			<point x="229" y="396"/>
			<point x="287" y="436"/>
			<point x="287" y="504" type="curve" smooth="yes"/>
			<point x="287" y="551"/>
			<point x="261" y="586"/>
			<point x="198" y="604" type="curve" smooth="yes"/>
			<point x="164" y="613" type="line" smooth="yes"/>
			<point x="118" y="627"/>
			<point x="109" y="640"/>
			<point x="109" y="658" type="curve" smooth="yes"/>
			<point x="109" y="682"/>
			<point x="129" y="696"/>
			<point x="158" y="696" type="curve" smooth="yes"/>
			<point x="188" y="696"/>
			<point x="202" y="689"/>
			<point x="226" y="674" type="curve"/>
			<point x="188" y="713" type="line"/>
			<point x="207" y="634" type="line"/>
			<point x="263" y="634" type="line"/>
			<point x="268" y="705" type="line"/>
			<point x="233" y="722"/>
			<point x="200" y="731"/>
			<point x="160" y="731" type="curve" smooth="yes"/>
			<point x="70" y="731"/>
			<point x="19" y="685"/>
			<point x="19" y="625" type="curve" smooth="yes"/>
			<point x="19" y="577"/>
			<point x="48" y="543"/>
			<point x="100" y="528" type="curve" smooth="yes"/>
			<point x="136" y="518" type="line" smooth="yes"/>
			<point x="180" y="505"/>
			<point x="192" y="492"/>
			<point x="192" y="471" type="curve" smooth="yes"/>
			<point x="192" y="445"/>
			<point x="171" y="432"/>
			<point x="134" y="432" type="curve" smooth="yes"/>
			<point x="103" y="432"/>
			<point x="80" y="441"/>
			<point x="50" y="458" type="curve"/>
			<point x="88" y="419" type="line"/>
			<point x="73" y="505" type="line"/>
			<point x="18" y="505" type="line"/>
			<point x="16" y="426" type="line"/>
			<point x="51" y="406"/>
			<point x="89" y="396"/>
		</contour>
	</outline>
</glyph>
<glyph name="Alphatonos" format="1">
	<unicode hex="0386"/>
	<advance width="702"/>
	<outline>
		<contour>
			<point x="21" y="426" type="curve"/>
			<point x="81" y="408" type="line"/>
			<point x="93" y="427"/>
			<point x="106" y="449"/>
			<point x="149" y="528" type="curve" smooth="yes"/>
			<point x="159" y="546"/>
			<point x="173" y="580"/>
			<point x="173" y="609" type="curve" smooth="yes"/>
			<point x="173" y="657"/>
			<point x="138" y="672"/>
			<point x="104" y="672" type="curve" smooth="yes"/>
			<point x="61" y="672"/>
			<point x="38" y="647"/>
			<point x="27" y="520" type="curve" smooth="yes"/>
			<point x="23" y="478"/>
			<point x="21" y="452"/>
		</contour>
		<component base="Alpha" xOffset="22"/>
	</outline>
</glyph>
<glyph name="Epsilontonos" format="1">
	<unicode hex="0388"/>
	<advance width="745"/>
	<outline>
		<contour>
			<point x="4" y="426" type="curve"/>
			<point x="64" y="408" type="line"/>
			<point x="76" y="427"/>
			<point x="89" y="449"/>
			<point x="132" y="528" type="curve" smooth="yes"/>
			<point x="142" y="546"/>
			<point x="156" y="580"/>
			<point x="156" y="609" type="curve" smooth="yes"/>
			<point x="156" y="657"/>
			<point x="121" y="672"/>
			<point x="87" y="672" type="curve" smooth="yes"/>
			<point x="44" y="672"/>
			<point x="21" y="647"/>
			<point x="10" y="520" type="curve" smooth="yes"/>
			<point x="6" y="478"/>
			<point x="4" y="452"/>
		</contour>
		<component base="Epsilon" xOffset="154"/>
	</outline>
</glyph>
<glyph name="Delta" format="1">
	<unicode hex="0394"/>
	<unicode hex="2206"/>
	<advance width="626"/>
	<outline>
		<contour>
			<point x="50" y="0" type="line"/>
			<point x="85" y="0" type="line"/>
			<point x="293" y="583" type="line"/>
			<point x="250" y="513" type="line"/>
			<point x="429" y="0" type="line"/>
			<point x="606" y="0" type="line"/>
			<point x="606" y="99" type="line"/>
			<point x="387" y="652" type="line"/>
			<point x="267" y="652" type="line"/>
			<point x="50" y="99" type="line"/>
		</contour>
		<contour>
			<point x="75" y="0" type="line"/>
			<point x="466" y="0" type="line"/>
			<point x="466" y="110" type="line"/>
			<point x="75" y="110" type="line"/>
		</contour>
	</outline>
</glyph>
<glyph name="Theta" format="1">
	<unicode hex="0398"/>
	<advance width="750"/>
	<outline>
		<contour>
			<point x="380" y="-20" type="curve" smooth="yes"/>
			<point x="569" y="-20"/>
			<point x="722" y="91"/>
			<point x="722" y="326" type="curve" smooth="yes"/>
			<point x="722" y="561"/>
			<point x="568" y="672"/>
			<point x="380" y="672" type="curve" smooth="yes"/>
			<point x="182" y="672"/>
			<point x="28" y="561"/>
			<point x="28" y="326" type="curve" smooth="yes"/>
			<point x="28" y="91"/>
			<point x="181" y="-20"/>
		</contour>
		<contour>
			<point x="380" y="41" type="curve" smooth="yes"/>
			<point x="254" y="41"/>
			<point x="218" y="154"/>
			<point x="218" y="326" type="curve" smooth="yes"/>
			<point x="218" y="497"/>
			<point x="254" y="612"/>
			<point x="380" y="612" type="curve" smooth="yes"/>
			<point x="496" y="612"/>
			<point x="532" y="497"/>
			<point x="532" y="326" type="curve" smooth="yes"/>
			<point x="532" y="154"/>
			<point x="496" y="41"/>
		</contour>
		<contour>
			<point x="421" y="312" type="line"/>
			<point x="436" y="215" type="line"/>
			<point x="489" y="215" type="line"/>
			<point x="489" y="422" type="line"/>
			<point x="436" y="422" type="line"/>
			<point x="421" y="330" type="line"/>
		</contour>
		<contour>
			<point x="339" y="312" type="line"/>
			<point x="339" y="330" type="line"/>
			<point x="324" y="422" type="line"/>
			<point x="271" y="422" type="line"/>
			<point x="271" y="215" type="line"/>
			<point x="324" y="215" type="line"/>
		</contour>
		<contour>
			<point x="309" y="355" type="line"/>
			<point x="309" y="281" type="line"/>
			<point x="451" y="281" type="line"/>
			<point x="451" y="355" type="line"/>
		</contour>
	</outline>
</glyph>
<glyph name="Lambda" format="2">
	<unicode hex="039B"/>
	<advance width="656"/>
	<outline>
		<contour>
			<point x="464" y="74" type="line"/>
			<point x="313" y="54" type="line"/>
			<point x="313" y="0" type="line"/>
			<point x="656" y="0" type="line"/>
			<point x="656" y="59" type="line"/>
			<point x="505" y="74" type="line"/>
		</contour>
		<contour>
			<point x="94" y="74" type="line"/>
			<point x="5" y="59" type="line"/>
			<point x="5" y="0" type="line"/>
			<point x="216" y="0" type="line"/>
			<point x="216" y="54" type="line"/>
			<point x="107" y="74" type="line"/>
		</contour>
		<contour>
			<point x="278" y="652" type="line"/>
			<point x="49" y="0" type="line"/>
			<point x="118" y="0" type="line"/>
			<point x="291" y="512" type="line"/>
			<point x="259" y="482" type="line"/>
			<point x="415" y="0" type="line"/>
			<point x="628" y="0" type="line"/>
			<point x="398" y="652" type="line"/>
		</contour>
	</outline>
</glyph>
<glyph name="Xi" format="1">
	<unicode hex="039E"/>
	<advance width="594"/>
	<outline>
		<contour>
			<point x="383" y="320" type="line"/>
			<point x="398" y="228" type="line"/>
			<point x="461" y="228" type="line"/>
			<point x="461" y="425" type="line"/>
			<point x="398" y="425" type="line"/>
			<point x="383" y="338" type="line"/>
		</contour>
		<contour>
			<point x="211" y="320" type="line"/>
			<point x="211" y="338" type="line"/>
			<point x="196" y="425" type="line"/>
			<point x="133" y="425" type="line"/>
			<point x="133" y="228" type="line"/>
			<point x="196" y="228" type="line"/>
		</contour>
		<contour>
			<point x="181" y="372" type="line"/>
			<point x="181" y="284" type="line"/>
			<point x="413" y="284" type="line"/>
			<point x="413" y="372" type="line"/>
		</contour>
		<contour>
			<point x="37" y="652" type="line"/>
			<point x="30" y="452" type="line"/>
			<point x="104" y="452" type="line"/>
			<point x="133" y="652" type="line"/>
			<point x="70" y="522" type="line"/>
			<point x="524" y="522" type="line"/>
			<point x="461" y="652" type="line"/>
			<point x="490" y="452" type="line"/>
			<point x="564" y="452" type="line"/>
			<point x="557" y="652" type="line"/>
		</contour>
		<contour>
			<point x="567" y="0" type="line"/>
			<point x="574" y="200" type="line"/>
			<point x="500" y="200" type="line"/>
			<point x="471" y="0" type="line"/>
			<point x="534" y="130" type="line"/>
			<point x="60" y="130" type="line"/>
			<point x="123" y="0" type="line"/>
			<point x="94" y="200" type="line"/>
			<point x="20" y="200" type="line"/>
			<point x="27" y="0" type="line"/>
		</contour>
	</outline>
</glyph>
<glyph name="Omega" format="1">
	<unicode hex="03A9"/>
	<unicode hex="2126"/>
	<advance width="750"/>
	<outline>
		<contour>
			<point x="98" y="180" type="line"/>
			<point x="28" y="180" type="line"/>
			<point x="49" y="0" type="line"/>
			<point x="325" y="0" type="line"/>
			<point x="320" y="60" type="line"/>
			<point x="297" y="80" type="line"/>
			<point x="44" y="90" type="line"/>
			<point x="156" y="0" type="line"/>
		</contour>
		<contour>
			<point x="652" y="180" type="line"/>
			<point x="594" y="0" type="line"/>
			<point x="706" y="80" type="line"/>
			<point x="453" y="80" type="line"/>
			<point x="430" y="60" type="line"/>
			<point x="425" y="0" type="line"/>
			<point x="701" y="0" type="line"/>
			<point x="722" y="180" type="line"/>
		</contour>
		<contour>
			<point x="375" y="612" type="curve" smooth="yes"/>
			<point x="476" y="612"/>
			<point x="509" y="490"/>
			<point x="509" y="387" type="curve" smooth="yes"/>
			<point x="509" y="278"/>
			<point x="491" y="190"/>
			<point x="417" y="150" type="curve"/>
			<point x="425" y="0" type="line"/>
			<point x="510" y="0" type="line"/>
			<point x="502" y="114" type="line"/>
			<point x="613" y="153"/>
			<point x="704" y="244"/>
			<point x="704" y="384" type="curve" smooth="yes"/>
			<point x="704" y="519"/>
			<point x="607" y="672"/>
			<point x="375" y="672" type="curve" smooth="yes"/>
			<point x="143" y="672"/>
			<point x="46" y="519"/>
			<point x="46" y="384" type="curve" smooth="yes"/>
			<point x="46" y="244"/>
			<point x="137" y="153"/>
			<point x="248" y="114" type="curve"/>
			<point x="240" y="0" type="line"/>
			<point x="325" y="0" type="line"/>
			<point x="333" y="150" type="line"/>
			<point x="259" y="190"/>
			<point x="241" y="278"/>
			<point x="241" y="387" type="curve" smooth="yes"/>
			<point x="241" y="496"/>
			<point x="282" y="612"/>
		</contour>
	</outline>
</glyph>
<glyph name="alpha" format="1">
  <advance width="599"/>
  <unicode hex="03B1"/>
  <outline>
    <contour>
      <point x="219" y="-15" type="curve" smooth="yes"/>
      <point x="287" y="-15"/>
      <point x="351" y="16"/>
      <point x="378" y="112" type="curve"/>
      <point x="359" y="80" type="line"/>
      <point x="364" y="25"/>
      <point x="421" y="-16"/>
      <point x="477" y="-16" type="curve" smooth="yes"/>
      <point x="534" y="-16"/>
      <point x="582" y="17"/>
      <point x="599" y="56" type="curve"/>
      <point x="583" y="95" type="line"/>
      <point x="575" y="91"/>
      <point x="565" y="89"/>
      <point x="550" y="89" type="curve" smooth="yes"/>
      <point x="521" y="89"/>
      <point x="508" y="112"/>
      <point x="508" y="152" type="curve" smooth="yes"/>
      <point x="508" y="248"/>
      <point x="523" y="353"/>
      <point x="543" y="486" type="curve"/>
      <point x="525" y="498" type="line"/>
      <point x="355" y="474" type="line"/>
      <point x="349" y="402" type="line"/>
      <point x="345" y="241" type="line" smooth="yes"/>
      <point x="341" y="97"/>
      <point x="302" y="74"/>
      <point x="269" y="74" type="curve" smooth="yes"/>
      <point x="224" y="74"/>
      <point x="202" y="124"/>
      <point x="202" y="237" type="curve" smooth="yes"/>
      <point x="202" y="374"/>
      <point x="237" y="420"/>
      <point x="277" y="420" type="curve" smooth="yes"/>
      <point x="307" y="420"/>
      <point x="333" y="399"/>
      <point x="364" y="299" type="curve"/>
      <point x="375" y="320" type="line"/>
      <point x="368" y="448"/>
      <point x="311" y="503"/>
      <point x="225" y="503" type="curve" smooth="yes"/>
      <point x="121" y="503"/>
      <point x="26" y="397"/>
      <point x="26" y="224" type="curve"/>
      <point x="26" y="69"/>
      <point x="103" y="-15"/>
    </contour>
    <contour>
      <point x="332.0" y="520.0" type="move" name="aboveLC"/>
    </contour>
    <contour>
      <point x="326.0" y="-22.0" type="move" name="belowLC"/>
    </contour>
  </outline>
</glyph>
<glyph name="beta" format="1">
  <advance width="601"/>
  <unicode hex="03B2"/>
  <outline>
    <contour>
      <point x="50" y="-175" type="line"/>
      <point x="70" y="-195" type="line"/>
      <point x="265" y="-160" type="line"/>
      <point x="226" y="76" type="line"/>
      <point x="227" y="93" type="line"/>
      <point x="232" y="524" type="line" smooth="yes"/>
      <point x="233" y="637"/>
      <point x="271" y="666"/>
      <point x="311" y="666" type="curve" smooth="yes"/>
      <point x="351" y="666"/>
      <point x="380" y="635"/>
      <point x="380" y="556" type="curve" smooth="yes"/>
      <point x="380" y="490"/>
      <point x="360" y="438"/>
      <point x="257" y="399" type="curve"/>
      <point x="279" y="318" type="line"/>
      <point x="374" y="312"/>
      <point x="409" y="269"/>
      <point x="409" y="188" type="curve" smooth="yes"/>
      <point x="409" y="130"/>
      <point x="378" y="80"/>
      <point x="309" y="80" type="curve" smooth="yes"/>
      <point x="272" y="80"/>
      <point x="245" y="91"/>
      <point x="210" y="112" type="curve"/>
      <point x="193" y="61" type="line"/>
      <point x="240" y="10"/>
      <point x="272" y="-16"/>
      <point x="356" y="-16" type="curve" smooth="yes"/>
      <point x="476" y="-16"/>
      <point x="569" y="52"/>
      <point x="569" y="193" type="curve"/>
      <point x="569" y="330"/>
      <point x="462" y="407"/>
      <point x="281" y="378" type="curve"/>
      <point x="281" y="355" type="line"/>
      <point x="453" y="369"/>
      <point x="530" y="467"/>
      <point x="530" y="558" type="curve" smooth="yes"/>
      <point x="530" y="656"/>
      <point x="460" y="721"/>
      <point x="318" y="721" type="curve" smooth="yes"/>
      <point x="156" y="721"/>
      <point x="61" y="624"/>
      <point x="61" y="414" type="curve" smooth="yes"/>
      <point x="61" y="66" type="line"/>
    </contour>
  </outline>
</glyph>
<glyph name="delta" format="1">
  <advance width="560.0"/>
  <unicode hex="03B4"/>
  <outline>
    <contour>
      <point x="12" y="190" type="curve" smooth="yes"/>
      <point x="12" y="79"/>
      <point x="85" y="-15"/>
      <point x="268" y="-15" type="curve" smooth="yes"/>
      <point x="396" y="-15"/>
      <point x="538" y="68"/>
      <point x="538" y="231" type="curve" smooth="yes"/>
      <point x="538" y="353"/>
      <point x="476" y="414"/>
      <point x="360" y="498" type="curve" smooth="yes"/>
      <point x="251" y="577"/>
      <point x="229" y="602"/>
      <point x="229" y="642" type="curve" smooth="yes"/>
      <point x="229" y="670"/>
      <point x="253" y="696"/>
      <point x="297" y="696" type="curve"/>
      <point x="325" y="696"/>
      <point x="340" y="682"/>
      <point x="356" y="678" type="curve"/>
      <point x="356" y="703" type="line"/>
      <point x="292" y="704" type="line"/>
      <point x="359" y="618" type="line" smooth="yes"/>
      <point x="394" y="573"/>
      <point x="418" y="561"/>
      <point x="451" y="561" type="curve" smooth="yes"/>
      <point x="503" y="561"/>
      <point x="527" y="591"/>
      <point x="529" y="625" type="curve"/>
      <point x="514" y="684"/>
      <point x="423" y="741"/>
      <point x="316" y="741" type="curve" smooth="yes"/>
      <point x="178" y="741"/>
      <point x="96" y="675"/>
      <point x="96" y="580" type="curve"/>
      <point x="96" y="497"/>
      <point x="146" y="462"/>
      <point x="243" y="385" type="curve" smooth="yes"/>
      <point x="320" y="323"/>
      <point x="350" y="266"/>
      <point x="350" y="186" type="curve" smooth="yes"/>
      <point x="350" y="84"/>
      <point x="314" y="39"/>
      <point x="269" y="39" type="curve" smooth="yes"/>
      <point x="221" y="39"/>
      <point x="193" y="96"/>
      <point x="195" y="188" type="curve" smooth="yes"/>
      <point x="198" y="334"/>
      <point x="267" y="404"/>
      <point x="409" y="432" type="curve"/>
      <point x="344" y="429" type="line"/>
      <point x="209" y="452"/>
      <point x="12" y="384"/>
    </contour>
  </outline>
</glyph>
<glyph name="zeta" format="1">
	<unicode hex="03B6"/>
	<advance width="437"/>
	<outline>
		<contour>
			<point x="423" y="628" type="curve"/>
			<point x="410" y="713" type="line"/>
			<point x="42" y="733" type="line"/>
			<point x="42" y="588" type="line"/>
			<point x="314" y="588" type="line"/>
			<point x="300" y="613" type="line"/>
			<point x="111" y="430"/>
			<point x="14" y="311"/>
			<point x="14" y="182" type="curve" smooth="yes"/>
			<point x="14" y="88"/>
			<point x="74" y="35"/>
			<point x="194" y="-6" type="curve" smooth="yes"/>
			<point x="280" y="-35"/>
			<point x="293" y="-44"/>
			<point x="293" y="-83" type="curve" smooth="yes"/>
			<point x="293" y="-117"/>
			<point x="279" y="-160"/>
			<point x="258" y="-206" type="curve"/>
			<point x="327" y="-206" type="line"/>
			<point x="384" y="-136"/>
			<point x="412" y="-80"/>
			<point x="412" y="-23" type="curve" smooth="yes"/>
			<point x="412" y="44"/>
			<point x="378" y="83"/>
			<point x="277" y="121" type="curve"/>
			<point x="190" y="154"/>
			<point x="165" y="175"/>
			<point x="165" y="224" type="curve" smooth="yes"/>
			<point x="165" y="336"/>
			<point x="313" y="505"/>
		</contour>
	</outline>
</glyph>
<glyph name="xi" format="1">
  <advance width="451"/>
  <unicode hex="03BE"/>
  <outline>
    <contour>
      <point x="60" y="307"/>
      <point x="22" y="233"/>
      <point x="22" y="157" type="curve" smooth="yes"/>
      <point x="22" y="74"/>
      <point x="86" y="29"/>
      <point x="175" y="-4" type="curve" smooth="yes"/>
      <point x="271" y="-40"/>
      <point x="302" y="-49"/>
      <point x="302" y="-92" type="curve"/>
      <point x="302" y="-125"/>
      <point x="288" y="-160"/>
      <point x="267" y="-206" type="curve"/>
      <point x="346" y="-206" type="line"/>
      <point x="395" y="-145"/>
      <point x="425" y="-98"/>
      <point x="425" y="-32" type="curve" smooth="yes"/>
      <point x="425" y="40"/>
      <point x="395" y="80"/>
      <point x="293" y="118" type="curve" smooth="yes"/>
      <point x="207" y="150"/>
      <point x="184" y="176"/>
      <point x="184" y="223" type="curve" smooth="yes"/>
      <point x="184" y="287"/>
      <point x="246" y="315"/>
      <point x="329" y="315" type="curve" smooth="yes"/>
      <point x="347" y="315"/>
      <point x="378" y="315"/>
      <point x="397" y="314" type="curve"/>
      <point x="397" y="446" type="line"/>
      <point x="379" y="443"/>
      <point x="363" y="444"/>
      <point x="347" y="444" type="curve" smooth="yes"/>
      <point x="262" y="444"/>
      <point x="224" y="471"/>
      <point x="224" y="512" type="curve" smooth="yes"/>
      <point x="224" y="584"/>
      <point x="292" y="592"/>
      <point x="427" y="601" type="curve"/>
      <point x="427" y="711" type="line"/>
      <point x="34" y="733" type="line"/>
      <point x="34" y="588" type="line"/>
      <point x="227" y="588" type="line"/>
      <point x="219" y="598" type="line"/>
      <point x="102" y="564"/>
      <point x="65" y="513"/>
      <point x="65" y="448" type="curve" smooth="yes"/>
      <point x="65" y="401"/>
      <point x="84" y="339"/>
      <point x="202" y="317" type="curve"/>
      <point x="202" y="330" type="line"/>
    </contour>
  </outline>
</glyph>
<glyph name="rho" format="1">
	<unicode hex="03C1"/>
	<advance width="601"/>
	<outline>
		<contour>
			<point x="45" y="-175" type="line"/>
			<point x="65" y="-195" type="line"/>
			<point x="260" y="-160" type="line"/>
			<point x="224" y="55" type="line"/>
			<point x="224" y="298" type="line" smooth="yes"/>
			<point x="224" y="402"/>
			<point x="243" y="439"/>
			<point x="290" y="439" type="curve" smooth="yes"/>
			<point x="349" y="439"/>
			<point x="371" y="337"/>
			<point x="371" y="243" type="curve" smooth="yes"/>
			<point x="371" y="99"/>
			<point x="336" y="64"/>
			<point x="290" y="64" type="curve" smooth="yes"/>
			<point x="251" y="64"/>
			<point x="220" y="77"/>
			<point x="182" y="164" type="curve"/>
			<point x="174" y="157" type="line"/>
			<point x="191" y="60"/>
			<point x="240" y="-16"/>
			<point x="332" y="-16" type="curve" smooth="yes"/>
			<point x="446" y="-16"/>
			<point x="546" y="82"/>
			<point x="546" y="258" type="curve" smooth="yes"/>
			<point x="546" y="409"/>
			<point x="470" y="503"/>
			<point x="308" y="503" type="curve" smooth="yes"/>
			<point x="141" y="503"/>
			<point x="58" y="403"/>
			<point x="57" y="214" type="curve" smooth="yes"/>
			<point x="56" y="66" type="line"/>
		</contour>
		<contour>
			<point name="aboveLC" x="309" y="520" type="move"/>
		</contour>
	</outline>
</glyph>
<glyph name="sigma.end" format="1">
	<unicode hex="03C2"/>
	<advance width="469"/>
	<outline>
		<contour>
			<point x="30" y="96"/>
			<point x="101" y="31"/>
			<point x="215" y="-7" type="curve" smooth="yes"/>
			<point x="297" y="-34"/>
			<point x="311" y="-45"/>
			<point x="311" y="-82" type="curve" smooth="yes"/>
			<point x="311" y="-118"/>
			<point x="297" y="-160"/>
			<point x="276" y="-206" type="curve"/>
			<point x="345" y="-206" type="line"/>
			<point x="391" y="-149"/>
			<point x="430" y="-90"/>
			<point x="430" y="-21" type="curve" smooth="yes"/>
			<point x="430" y="50"/>
			<point x="387" y="86"/>
			<point x="295" y="121" type="curve" smooth="yes"/>
			<point x="203" y="156"/>
			<point x="169" y="198"/>
			<point x="169" y="275" type="curve" smooth="yes"/>
			<point x="169" y="374"/>
			<point x="220" y="439"/>
			<point x="278" y="454" type="curve"/>
			<point x="241" y="465" type="line"/>
			<point x="293" y="403" type="line" smooth="yes"/>
			<point x="317" y="375"/>
			<point x="330" y="358"/>
			<point x="369" y="358" type="curve" smooth="yes"/>
			<point x="409" y="358"/>
			<point x="442" y="380"/>
			<point x="442" y="436" type="curve"/>
			<point x="415" y="477"/>
			<point x="355" y="503"/>
			<point x="288" y="503" type="curve" smooth="yes"/>
			<point x="116" y="503"/>
			<point x="30" y="390"/>
			<point x="30" y="237" type="curve" smooth="yes"/>
		</contour>
	</outline>
</glyph>
<glyph name="tau" format="2">
	<unicode hex="03C4"/>
	<advance width="485"/>
	<outline>
		<contour>
			<point x="17" y="338" type="line"/>
			<point x="230" y="359" type="line"/>
			<point x="465" y="349" type="line"/>
			<point x="457" y="495" type="line"/>
			<point x="256" y="495" type="line" smooth="yes"/>
			<point x="108" y="495"/>
			<point x="54" y="462"/>
			<point x="5" y="411" type="curve"/>
		</contour>
		<contour>
			<point x="284" y="-16" type="curve" smooth="yes"/>
			<point x="357" y="-16"/>
			<point x="394" y="15"/>
			<point x="413" y="55" type="curve"/>
			<point x="396" y="95" type="line"/>
			<point x="388" y="91"/>
			<point x="376" y="89"/>
			<point x="360" y="89" type="curve" smooth="yes"/>
			<point x="321" y="89"/>
			<point x="298" y="107"/>
			<point x="298" y="165" type="curve" smooth="yes"/>
			<point x="298" y="383" type="line"/>
			<point x="176" y="383" type="line"/>
			<point x="149" y="216"/>
			<point x="139" y="175"/>
			<point x="139" y="116" type="curve" smooth="yes"/>
			<point x="139" y="17"/>
			<point x="207" y="-16"/>
		</contour>
	</outline>
</glyph>
<glyph name="omega" format="1">
	<unicode hex="03C9"/>
	<advance width="779"/>
	<outline>
		<contour>
			<point x="225" y="-16" type="curve" smooth="yes"/>
			<point x="314" y="-16"/>
			<point x="375" y="19"/>
			<point x="393" y="109" type="curve"/>
			<point x="384" y="109" type="line"/>
			<point x="402" y="17"/>
			<point x="466" y="-16"/>
			<point x="554" y="-16" type="curve"/>
			<point x="675" y="-16"/>
			<point x="751" y="79"/>
			<point x="751" y="214" type="curve" smooth="yes"/>
			<point x="751" y="394"/>
			<point x="641" y="470"/>
			<point x="545" y="502" type="curve"/>
			<point x="507" y="466" type="line"/>
			<point x="552" y="414"/>
			<point x="585" y="335"/>
			<point x="585" y="211" type="curve"/>
			<point x="585" y="140"/>
			<point x="569" y="82"/>
			<point x="514" y="82" type="curve" smooth="yes"/>
			<point x="478" y="82"/>
			<point x="452" y="118"/>
			<point x="452" y="201" type="curve" smooth="yes"/>
			<point x="452" y="229"/>
			<point x="464" y="307"/>
			<point x="470" y="384" type="curve"/>
			<point x="451" y="396" type="line"/>
			<point x="314" y="373" type="line"/>
			<point x="321" y="278"/>
			<point x="325" y="225"/>
			<point x="325" y="210" type="curve" smooth="yes"/>
			<point x="325" y="119"/>
			<point x="302" y="82"/>
			<point x="262" y="82" type="curve" smooth="yes"/>
			<point x="223" y="82"/>
			<point x="192" y="116"/>
			<point x="192" y="214" type="curve" smooth="yes"/>
			<point x="192" y="301"/>
			<point x="211" y="400"/>
			<point x="270" y="466" type="curve"/>
			<point x="232" y="502" type="line"/>
			<point x="94" y="456"/>
			<point x="26" y="353"/>
			<point x="26" y="215" type="curve" smooth="yes"/>
			<point x="26" y="74"/>
			<point x="104" y="-16"/>
		</contour>
		<contour>
			<point name="aboveLC" x="390" y="520" type="move"/>
		</contour>
		<contour>
			<point name="belowLC" x="327" y="-22" type="move"/>
		</contour>
	</outline>
</glyph>
<glyph name="koppa" format="1">
	<unicode hex="03D9"/>
	<advance width="556"/>
	<outline>
		<contour>
			<point x="225" y="36" type="line"/>
			<point x="206" y="-178" type="line"/>
			<point x="228" y="-195" type="line"/>
			<point x="390" y="-167" type="line"/>
			<point x="360" y="36" type="line"/>
		</contour>
		<component base="omicron"/>
		<contour>
			<point name="aboveLC" x="278" y="520" type="move"/>
		</contour>
	</outline>
</glyph>
<glyph name="Dje" format="2">
	<unicode hex="0402"/>
	<advance width="733"/>
	<outline>
		<contour>
			<point x="20" y="463" type="line"/>
			<point x="114" y="463" type="line"/>
			<point x="138" y="652" type="line"/>
			<point x="55" y="593" type="line"/>
			<point x="581" y="593" type="line"/>
			<point x="499" y="652" type="line"/>
			<point x="523" y="483" type="line"/>
			<point x="616" y="483" type="line"/>
			<point x="615" y="652" type="line"/>
			<point x="22" y="652" type="line"/>
		</contour>
		<contour>
			<point x="124" y="0" type="line"/>
			<point x="303" y="0" type="line"/>
			<point x="303" y="74" type="line"/>
			<point x="275" y="74" type="line"/>
			<point x="124" y="59" type="line"/>
		</contour>
		<contour>
			<point x="201" y="0" type="curve"/>
			<point x="402" y="0" type="line"/>
			<point x="399" y="103"/>
			<point x="399" y="207"/>
			<point x="399" y="311" type="curve" smooth="yes"/>
			<point x="399" y="359" type="line" smooth="yes"/>
			<point x="399" y="447"/>
			<point x="399" y="551"/>
			<point x="402" y="652" type="curve"/>
			<point x="201" y="652" type="line"/>
			<point x="204" y="549"/>
			<point x="204" y="445"/>
			<point x="204" y="342" type="curve" smooth="yes"/>
			<point x="204" y="310" type="line" smooth="yes"/>
			<point x="204" y="205"/>
			<point x="204" y="101"/>
		</contour>
		<contour>
			<point x="441" y="-69" type="line"/>
			<point x="663" y="-58"/>
			<point x="718" y="68"/>
			<point x="718" y="169" type="curve" smooth="yes"/>
			<point x="718" y="286"/>
			<point x="651" y="396"/>
			<point x="467" y="396" type="curve" smooth="yes"/>
			<point x="410" y="396"/>
			<point x="360" y="393"/>
			<point x="303" y="386" type="curve"/>
			<point x="303" y="325" type="line"/>
			<point x="336" y="331"/>
			<point x="371" y="335"/>
			<point x="408" y="335" type="curve" smooth="yes"/>
			<point x="487" y="335"/>
			<point x="526" y="279"/>
			<point x="526" y="156" type="curve" smooth="yes"/>
			<point x="526" y="67"/>
			<point x="488" y="-1"/>
			<point x="429" y="-17" type="curve"/>
		</contour>
	</outline>
</glyph>
<glyph name="Tshe" format="2">
	<unicode hex="040B"/>
	<advance width="810"/>
	<outline>
		<contour>
			<point x="20" y="463" type="line"/>
			<point x="114" y="463" type="line"/>
			<point x="138" y="652" type="line"/>
			<point x="55" y="593" type="line"/>
			<point x="601" y="593" type="line"/>
			<point x="519" y="652" type="line"/>
			<point x="543" y="483" type="line"/>
			<point x="636" y="483" type="line"/>
			<point x="635" y="652" type="line"/>
			<point x="22" y="652" type="line"/>
		</contour>
		<contour>
			<point x="144" y="0" type="line"/>
			<point x="495" y="0" type="line"/>
			<point x="495" y="59" type="line"/>
			<point x="348" y="74" type="line"/>
			<point x="295" y="74" type="line"/>
			<point x="144" y="59" type="line"/>
		</contour>
		<contour>
			<point x="221" y="0" type="curve"/>
			<point x="425" y="0" type="line"/>
			<point x="422" y="103"/>
			<point x="422" y="207"/>
			<point x="422" y="311" type="curve" smooth="yes"/>
			<point x="422" y="376" type="line" smooth="yes"/>
			<point x="422" y="447"/>
			<point x="422" y="551"/>
			<point x="425" y="652" type="curve"/>
			<point x="221" y="652" type="line"/>
			<point x="224" y="549"/>
			<point x="224" y="445"/>
			<point x="224" y="342" type="curve" smooth="yes"/>
			<point x="224" y="310" type="line" smooth="yes"/>
			<point x="224" y="205"/>
			<point x="224" y="101"/>
		</contour>
		<contour>
			<point x="557" y="0" type="curve"/>
			<point x="750" y="0" type="line"/>
			<point x="750" y="185" type="line" smooth="yes"/>
			<point x="750" y="343"/>
			<point x="688" y="406"/>
			<point x="525" y="406" type="curve" smooth="yes"/>
			<point x="461" y="406"/>
			<point x="390" y="402"/>
			<point x="325" y="396" type="curve"/>
			<point x="325" y="335" type="line"/>
			<point x="369" y="344"/>
			<point x="414" y="345"/>
			<point x="464" y="345" type="curve" smooth="yes"/>
			<point x="539" y="345"/>
			<point x="560" y="297"/>
			<point x="560" y="190" type="curve" smooth="yes"/>
			<point x="560" y="118"/>
			<point x="559" y="69"/>
		</contour>
		<contour>
			<point x="644" y="0" type="line"/>
			<point x="793" y="0" type="line"/>
			<point x="793" y="59" type="line"/>
			<point x="675" y="74" type="line"/>
			<point x="644" y="74" type="line"/>
		</contour>
	</outline>
</glyph>
<glyph name="Dzhe" format="2">
	<unicode hex="040F"/>
	<advance width="742"/>
	<outline>
		<contour>
			<point x="93" y="0" type="curve"/>
			<point x="297" y="0" type="line"/>
			<point x="294" y="101"/>
			<point x="294" y="205"/>
			<point x="294" y="310" type="curve" smooth="yes"/>
			<point x="294" y="341" type="line" smooth="yes"/>
			<point x="294" y="445"/>
			<point x="294" y="549"/>
			<point x="297" y="652" type="curve"/>
			<point x="93" y="652" type="line"/>
			<point x="96" y="551"/>
			<point x="96" y="447"/>
			<point x="96" y="342" type="curve" smooth="yes"/>
			<point x="96" y="310" type="line" smooth="yes"/>
			<point x="96" y="207"/>
			<point x="96" y="103"/>
		</contour>
		<contour>
			<point x="445" y="0" type="curve"/>
			<point x="649" y="0" type="line"/>
			<point x="646" y="101"/>
			<point x="646" y="205"/>
			<point x="646" y="310" type="curve" smooth="yes"/>
			<point x="646" y="342" type="line" smooth="yes"/>
			<point x="646" y="445"/>
			<point x="646" y="549"/>
			<point x="649" y="652" type="curve"/>
			<point x="445" y="652" type="line"/>
			<point x="448" y="551"/>
			<point x="448" y="447"/>
			<point x="448" y="341" type="curve" smooth="yes"/>
			<point x="448" y="310" type="line" smooth="yes"/>
			<point x="448" y="207"/>
			<point x="448" y="103"/>
		</contour>
		<contour>
			<point x="28" y="593" type="line"/>
			<point x="172" y="578" type="line"/>
			<point x="205" y="578" type="line"/>
			<point x="352" y="593" type="line"/>
			<point x="352" y="652" type="line"/>
			<point x="28" y="652" type="line"/>
		</contour>
		<contour>
			<point x="390" y="593" type="line"/>
			<point x="534" y="578" type="line"/>
			<point x="565" y="578" type="line"/>
			<point x="714" y="593" type="line"/>
			<point x="714" y="652" type="line"/>
			<point x="390" y="652" type="line"/>
		</contour>
		<contour>
			<point x="28" y="0" type="line"/>
			<point x="195" y="0" type="line"/>
			<point x="195" y="74" type="line"/>
			<point x="179" y="74" type="line"/>
			<point x="28" y="59" type="line"/>
		</contour>
		<contour>
			<point x="714" y="0" type="line"/>
			<point x="714" y="59" type="line"/>
			<point x="563" y="74" type="line"/>
			<point x="547" y="74" type="line"/>
			<point x="547" y="0" type="line"/>
		</contour>
		<contour>
			<point x="308" y="43" type="line"/>
			<point x="328" y="-210" type="line"/>
			<point x="415" y="-210" type="line"/>
			<point x="435" y="43" type="line"/>
		</contour>
		<contour>
			<point x="547" y="0" type="line"/>
			<point x="547" y="63" type="line"/>
			<point x="195" y="63" type="line"/>
			<point x="195" y="0" type="line"/>
		</contour>
	</outline>
</glyph>
<glyph name="Be" format="2">
	<unicode hex="0411"/>
	<advance width="626"/>
	<outline>
		<contour>
			<point x="26" y="0" type="line"/>
			<point x="195" y="0" type="line"/>
			<point x="195" y="74" type="line"/>
			<point x="177" y="74" type="line"/>
			<point x="26" y="59" type="line"/>
		</contour>
		<contour>
			<point x="93" y="0" type="curve"/>
			<point x="293" y="0" type="line"/>
			<point x="290" y="105"/>
			<point x="290" y="210"/>
			<point x="290" y="316" type="curve" smooth="yes"/>
			<point x="290" y="364" type="line" smooth="yes"/>
			<point x="290" y="443"/>
			<point x="290" y="549"/>
			<point x="293" y="652" type="curve"/>
			<point x="93" y="652" type="line"/>
			<point x="96" y="547"/>
			<point x="96" y="441"/>
			<point x="96" y="336" type="curve" smooth="yes"/>
			<point x="96" y="315" type="line" smooth="yes"/>
			<point x="96" y="208"/>
			<point x="96" y="103"/>
		</contour>
		<contour>
			<point x="197" y="0" type="line"/>
			<point x="307" y="0" type="line" smooth="yes"/>
			<point x="561" y="0"/>
			<point x="612" y="108"/>
			<point x="612" y="205" type="curve" smooth="yes"/>
			<point x="612" y="301"/>
			<point x="545" y="396"/>
			<point x="361" y="396" type="curve" smooth="yes"/>
			<point x="304" y="396"/>
			<point x="254" y="393"/>
			<point x="197" y="386" type="curve"/>
			<point x="197" y="325" type="line"/>
			<point x="230" y="331"/>
			<point x="265" y="335"/>
			<point x="302" y="335" type="curve" smooth="yes"/>
			<point x="381" y="335"/>
			<point x="420" y="289"/>
			<point x="420" y="200" type="curve" smooth="yes"/>
			<point x="420" y="108"/>
			<point x="370" y="62"/>
			<point x="305" y="62" type="curve" smooth="yes"/>
			<point x="197" y="62" type="line"/>
		</contour>
		<contour>
			<point x="26" y="593" type="line"/>
			<point x="177" y="578" type="line"/>
			<point x="195" y="578" type="line"/>
			<point x="195" y="652" type="line"/>
			<point x="26" y="652" type="line"/>
		</contour>
		<contour>
			<point x="462" y="463" type="line"/>
			<point x="550" y="463" type="line"/>
			<point x="549" y="652" type="line"/>
			<point x="195" y="652" type="line"/>
			<point x="195" y="593" type="line"/>
			<point x="515" y="593" type="line"/>
			<point x="428" y="652" type="line"/>
		</contour>
	</outline>
</glyph>
<glyph name="Ucyr" format="2">
	<unicode hex="0423"/>
	<advance width="671"/>
	<outline>
		<contour>
			<point x="5" y="593" type="line"/>
			<point x="156" y="578" type="line"/>
			<point x="209" y="578" type="line"/>
			<point x="346" y="593" type="line"/>
			<point x="346" y="652" type="line"/>
			<point x="5" y="652" type="line"/>
		</contour>
		<contour>
			<point x="326" y="27" type="line"/>
			<point x="421" y="232" type="line"/>
			<point x="252" y="652" type="line"/>
			<point x="26" y="652" type="line"/>
		</contour>
		<contour>
			<point x="79" y="21" type="curve"/>
			<point x="79" y="-59"/>
			<point x="128" y="-87"/>
			<point x="189" y="-87" type="curve" smooth="yes"/>
			<point x="293" y="-87"/>
			<point x="349" y="-2"/>
			<point x="407" y="128" type="curve" smooth="yes"/>
			<point x="639" y="652" type="line"/>
			<point x="560" y="652" type="line"/>
			<point x="350" y="140" type="line" smooth="yes"/>
			<point x="320" y="67"/>
			<point x="284" y="15"/>
			<point x="224" y="-33" type="curve"/>
			<point x="228" y="-56" type="line"/>
			<point x="289" y="2" type="line"/>
			<point x="252" y="50"/>
			<point x="209" y="79"/>
			<point x="163" y="79" type="curve" smooth="yes"/>
			<point x="121" y="79"/>
			<point x="94" y="58"/>
		</contour>
		<contour>
			<point x="470" y="593" type="line"/>
			<point x="556" y="580" type="line"/>
			<point x="586" y="580" type="line"/>
			<point x="671" y="593" type="line"/>
			<point x="671" y="652" type="line"/>
			<point x="470" y="652" type="line"/>
		</contour>
	</outline>
	<anchor name="aboveUC" x="391" y="682"/>
</glyph>
<glyph name="Ef" format="2">
	<unicode hex="0424"/>
	<advance width="784"/>
	<outline>
		<contour>
			<point x="236" y="-10" type="line"/>
			<point x="549" y="-10" type="line"/>
			<point x="549" y="49" type="line"/>
			<point x="428" y="64" type="line"/>
			<point x="377" y="64" type="line"/>
			<point x="236" y="49" type="line"/>
		</contour>
		<contour>
			<point x="306" y="-10" type="line"/>
			<point x="478" y="-10" type="line"/>
			<point x="478" y="662" type="line"/>
			<point x="306" y="662" type="line"/>
		</contour>
		<contour>
			<point x="30" y="189"/>
			<point x="133" y="109"/>
			<point x="322" y="109" type="curve" smooth="yes"/>
			<point x="392" y="109" type="line"/>
			<point x="392" y="172" type="line"/>
			<point x="322" y="172" type="line" smooth="yes"/>
			<point x="251" y="172"/>
			<point x="202" y="233"/>
			<point x="202" y="325" type="curve" smooth="yes"/>
			<point x="202" y="429"/>
			<point x="240" y="488"/>
			<point x="320" y="488" type="curve" smooth="yes"/>
			<point x="392" y="488" type="line"/>
			<point x="392" y="550" type="line"/>
			<point x="316" y="550" type="line" smooth="yes"/>
			<point x="121" y="550"/>
			<point x="30" y="458"/>
			<point x="30" y="332" type="curve" smooth="yes"/>
		</contour>
		<contour>
			<point x="392" y="109" type="line"/>
			<point x="462" y="109" type="line" smooth="yes"/>
			<point x="651" y="109"/>
			<point x="754" y="189"/>
			<point x="754" y="332" type="curve" smooth="yes"/>
			<point x="754" y="458"/>
			<point x="663" y="550"/>
			<point x="468" y="550" type="curve" smooth="yes"/>
			<point x="392" y="550" type="line"/>
			<point x="392" y="488" type="line"/>
			<point x="464" y="488" type="line" smooth="yes"/>
			<point x="544" y="488"/>
			<point x="582" y="429"/>
			<point x="582" y="325" type="curve" smooth="yes"/>
			<point x="582" y="233"/>
			<point x="533" y="172"/>
			<point x="462" y="172" type="curve" smooth="yes"/>
			<point x="392" y="172" type="line"/>
		</contour>
		<contour>
			<point x="370" y="588" type="line"/>
			<point x="413" y="588" type="line"/>
			<point x="549" y="603" type="line"/>
			<point x="549" y="662" type="line"/>
			<point x="236" y="662" type="line"/>
			<point x="236" y="603" type="line"/>
		</contour>
	</outline>
</glyph>
<glyph name="Hard" format="2">
	<unicode hex="042A"/>
	<advance width="764"/>
	<outline>
		<contour>
			<point x="20" y="463" type="line"/>
			<point x="114" y="463" type="line"/>
			<point x="138" y="652" type="line"/>
			<point x="55" y="593" type="line"/>
			<point x="333" y="593" type="line"/>
			<point x="333" y="652" type="line"/>
			<point x="22" y="652" type="line"/>
		</contour>
		<contour>
			<point x="166" y="0" type="line"/>
			<point x="335" y="0" type="line"/>
			<point x="335" y="74" type="line"/>
			<point x="317" y="74" type="line"/>
			<point x="166" y="59" type="line"/>
		</contour>
		<contour>
			<point x="231" y="0" type="curve"/>
			<point x="435" y="0" type="line"/>
			<point x="432" y="103"/>
			<point x="432" y="207"/>
			<point x="432" y="311" type="curve" smooth="yes"/>
			<point x="432" y="373" type="line" smooth="yes"/>
			<point x="432" y="447"/>
			<point x="432" y="551"/>
			<point x="435" y="652" type="curve"/>
			<point x="231" y="652" type="line"/>
			<point x="234" y="549"/>
			<point x="234" y="445"/>
			<point x="234" y="342" type="curve" smooth="yes"/>
			<point x="234" y="310" type="line" smooth="yes"/>
			<point x="234" y="205"/>
			<point x="234" y="101"/>
		</contour>
		<contour>
			<point x="335" y="0" type="line"/>
			<point x="445" y="0" type="line" smooth="yes"/>
			<point x="699" y="0"/>
			<point x="750" y="111"/>
			<point x="750" y="210" type="curve" smooth="yes"/>
			<point x="750" y="308"/>
			<point x="683" y="406"/>
			<point x="498" y="406" type="curve" smooth="yes"/>
			<point x="441" y="406"/>
			<point x="392" y="403"/>
			<point x="335" y="396" type="curve"/>
			<point x="335" y="335" type="line"/>
			<point x="368" y="341"/>
			<point x="402" y="345"/>
			<point x="439" y="345" type="curve" smooth="yes"/>
			<point x="519" y="345"/>
			<point x="558" y="298"/>
			<point x="558" y="205" type="curve" smooth="yes"/>
			<point x="558" y="110"/>
			<point x="508" y="62"/>
			<point x="443" y="62" type="curve" smooth="yes"/>
			<point x="335" y="62" type="line"/>
		</contour>
		<contour>
			<point x="333" y="577" type="line"/>
			<point x="343" y="578" type="line"/>
			<point x="505" y="593" type="line"/>
			<point x="505" y="652" type="line"/>
			<point x="333" y="652" type="line"/>
		</contour>
	</outline>
</glyph>
<glyph name="yeru" format="2">
	<unicode hex="044B"/>
	<advance width="835"/>
	<outline>
		<contour>
			<point x="528" y="0" type="line"/>
			<point x="812" y="0" type="line"/>
			<point x="812" y="51" type="line"/>
			<point x="718" y="71" type="line"/>
			<point x="622" y="71" type="line"/>
			<point x="528" y="51" type="line"/>
		</contour>
		<contour>
			<point x="528" y="436" type="line"/>
			<point x="622" y="416" type="line"/>
			<point x="718" y="416" type="line"/>
			<point x="812" y="436" type="line"/>
			<point x="812" y="487" type="line"/>
			<point x="528" y="487" type="line"/>
		</contour>
		<contour>
			<point x="572" y="0" type="curve"/>
			<point x="768" y="0" type="line"/>
			<point x="766" y="45"/>
			<point x="765" y="148"/>
			<point x="765" y="210" type="curve" smooth="yes"/>
			<point x="765" y="277" type="line" smooth="yes"/>
			<point x="765" y="339"/>
			<point x="766" y="442"/>
			<point x="768" y="487" type="curve"/>
			<point x="572" y="487" type="line"/>
			<point x="574" y="442"/>
			<point x="575" y="339"/>
			<point x="575" y="277" type="curve" smooth="yes"/>
			<point x="575" y="210" type="line" smooth="yes"/>
			<point x="575" y="148"/>
			<point x="574" y="45"/>
		</contour>
		<contour>
			<point x="23" y="0" type="line"/>
			<point x="165" y="0" type="line"/>
			<point x="165" y="71" type="line"/>
			<point x="117" y="71" type="line"/>
			<point x="23" y="51" type="line"/>
		</contour>
		<contour>
			<point x="23" y="436" type="line"/>
			<point x="117" y="416" type="line"/>
			<point x="213" y="416" type="line"/>
			<point x="307" y="436" type="line"/>
			<point x="307" y="487" type="line"/>
			<point x="23" y="487" type="line"/>
		</contour>
		<contour>
			<point x="67" y="0" type="curve"/>
			<point x="263" y="0" type="line"/>
			<point x="261" y="45"/>
			<point x="260" y="148"/>
			<point x="260" y="210" type="curve" smooth="yes"/>
			<point x="260" y="277" type="line" smooth="yes"/>
			<point x="260" y="339"/>
			<point x="261" y="442"/>
			<point x="263" y="487" type="curve"/>
			<point x="67" y="487" type="line"/>
			<point x="69" y="442"/>
			<point x="70" y="339"/>
			<point x="70" y="277" type="curve" smooth="yes"/>
			<point x="70" y="210" type="line" smooth="yes"/>
			<point x="70" y="148"/>
			<point x="69" y="45"/>
		</contour>
		<contour>
			<point x="165" y="0" type="line"/>
			<point x="267" y="0" type="line" smooth="yes"/>
			<point x="463" y="0"/>
			<point x="513" y="60"/>
			<point x="513" y="156" type="curve" smooth="yes"/>
			<point x="513" y="227"/>
			<point x="472" y="304"/>
			<point x="326" y="304" type="curve" smooth="yes"/>
			<point x="279" y="304"/>
			<point x="216" y="297"/>
			<point x="165" y="282" type="curve"/>
			<point x="165" y="242" type="line"/>
			<point x="196" y="250"/>
			<point x="227" y="253"/>
			<point x="267" y="253" type="curve" smooth="yes"/>
			<point x="316" y="253"/>
			<point x="343" y="224"/>
			<point x="343" y="160" type="curve" smooth="yes"/>
			<point x="343" y="81"/>
			<point x="316" y="52"/>
			<point x="265" y="52" type="curve" smooth="yes"/>
			<point x="165" y="52" type="line"/>
		</contour>
	</outline>
	<anchor name="aboveLC" x="420" y="510"/>
</glyph>
<glyph name="soft" format="2">
	<unicode hex="044C"/>
	<advance width="535"/>
	<outline>
		<contour>
			<point x="23" y="0" type="line"/>
			<point x="165" y="0" type="line"/>
			<point x="165" y="71" type="line"/>
			<point x="117" y="71" type="line"/>
			<point x="23" y="51" type="line"/>
		</contour>
		<contour>
			<point x="23" y="436" type="line"/>
			<point x="117" y="416" type="line"/>
			<point x="213" y="416" type="line"/>
			<point x="307" y="436" type="line"/>
			<point x="307" y="487" type="line"/>
			<point x="23" y="487" type="line"/>
		</contour>
		<contour>
			<point x="67" y="0" type="curve"/>
			<point x="263" y="0" type="line"/>
			<point x="261" y="45"/>
			<point x="260" y="148"/>
			<point x="260" y="210" type="curve" smooth="yes"/>
			<point x="260" y="277" type="line" smooth="yes"/>
			<point x="260" y="339"/>
			<point x="261" y="442"/>
			<point x="263" y="487" type="curve"/>
			<point x="67" y="487" type="line"/>
			<point x="69" y="442"/>
			<point x="70" y="339"/>
			<point x="70" y="277" type="curve" smooth="yes"/>
			<point x="70" y="210" type="line" smooth="yes"/>
			<point x="70" y="148"/>
			<point x="69" y="45"/>
		</contour>
		<contour>
			<point x="165" y="0" type="line"/>
			<point x="272" y="0" type="line" smooth="yes"/>
			<point x="482" y="0"/>
			<point x="523" y="69"/>
			<point x="523" y="156" type="curve" smooth="yes"/>
			<point x="523" y="227"/>
			<point x="477" y="304"/>
			<point x="331" y="304" type="curve" smooth="yes"/>
			<point x="283" y="304"/>
			<point x="217" y="297"/>
			<point x="165" y="282" type="curve"/>
			<point x="165" y="242" type="line"/>
			<point x="198" y="250"/>
			<point x="231" y="253"/>
			<point x="267" y="253" type="curve" smooth="yes"/>
			<point x="326" y="253"/>
			<point x="353" y="229"/>
			<point x="353" y="154" type="curve" smooth="yes"/>
			<point x="353" y="81"/>
			<point x="322" y="52"/>
			<point x="267" y="52" type="curve" smooth="yes"/>
			<point x="165" y="52" type="line"/>
		</contour>
	</outline>
</glyph>
<glyph name="Yat" format="1">
	<unicode hex="0462"/>
	<advance width="759"/>
	<outline>
		<contour>
			<point x="20" y="403" type="line"/>
			<point x="109" y="403" type="line"/>
			<point x="148" y="582" type="line"/>
			<point x="55" y="523" type="line"/>
			<point x="621" y="523" type="line"/>
			<point x="528" y="582" type="line"/>
			<point x="567" y="423" type="line"/>
			<point x="656" y="423" type="line"/>
			<point x="654" y="582" type="line"/>
			<point x="22" y="582" type="line"/>
		</contour>
		<contour>
			<point x="156" y="0" type="line"/>
			<point x="325" y="0" type="line"/>
			<point x="325" y="74" type="line"/>
			<point x="307" y="74" type="line"/>
			<point x="156" y="59" type="line"/>
		</contour>
		<contour>
			<point x="156" y="652" type="line"/>
			<point x="300" y="637" type="line"/>
			<point x="333" y="637" type="line"/>
			<point x="485" y="652" type="line"/>
			<point x="485" y="711" type="line"/>
			<point x="156" y="711" type="line"/>
		</contour>
		<contour>
			<point x="221" y="0" type="curve"/>
			<point x="425" y="0" type="line"/>
			<point x="422" y="103"/>
			<point x="422" y="207"/>
			<point x="422" y="311" type="curve" smooth="yes"/>
			<point x="422" y="360" type="line" smooth="yes"/>
			<point x="422" y="486"/>
			<point x="422" y="610"/>
			<point x="425" y="711" type="curve"/>
			<point x="221" y="711" type="line"/>
			<point x="224" y="608"/>
			<point x="224" y="484"/>
			<point x="224" y="381" type="curve" smooth="yes"/>
			<point x="224" y="310" type="line" smooth="yes"/>
			<point x="224" y="205"/>
			<point x="224" y="101"/>
		</contour>
		<contour>
			<point x="325" y="0" type="line"/>
			<point x="435" y="0" type="line" smooth="yes"/>
			<point x="673" y="0"/>
			<point x="745" y="87"/>
			<point x="745" y="203" type="curve" smooth="yes"/>
			<point x="745" y="295"/>
			<point x="678" y="386"/>
			<point x="494" y="386" type="curve" smooth="yes"/>
			<point x="435" y="386"/>
			<point x="384" y="383"/>
			<point x="325" y="376" type="curve"/>
			<point x="325" y="315" type="line"/>
			<point x="360" y="321"/>
			<point x="396" y="325"/>
			<point x="435" y="325" type="curve" smooth="yes"/>
			<point x="514" y="325"/>
			<point x="553" y="281"/>
			<point x="553" y="198" type="curve" smooth="yes"/>
			<point x="553" y="107"/>
			<point x="501" y="62"/>
			<point x="433" y="62" type="curve" smooth="yes"/>
			<point x="325" y="62" type="line"/>
		</contour>
	</outline>
</glyph>
<glyph name="Zedescender" format="1">
	<unicode hex="0498"/>
	<advance width="565"/>
	<outline>
		<contour>
			<point x="186" y="-211" type="line"/>
			<point x="211" y="-222"/>
			<point x="241" y="-227"/>
			<point x="282" y="-227" type="curve" smooth="yes"/>
			<point x="365" y="-227"/>
			<point x="411" y="-188"/>
			<point x="411" y="-137" type="curve" smooth="yes"/>
			<point x="411" y="-89"/>
			<point x="356" y="-30"/>
			<point x="298" y="0" type="curve"/>
			<point x="259" y="0" type="line"/>
			<point x="295" y="-50"/>
			<point x="307" y="-76"/>
			<point x="307" y="-115" type="curve" smooth="yes"/>
			<point x="307" y="-156"/>
			<point x="279" y="-170"/>
			<point x="250" y="-170" type="curve" smooth="yes"/>
			<point x="229" y="-170"/>
			<point x="214" y="-167"/>
			<point x="197" y="-161" type="curve"/>
		</contour>
		<component base="Ze"/>
	</outline>
</glyph>
<glyph name="zedescender" format="1">
	<unicode hex="0499"/>
	<advance width="486"/>
	<outline>
		<contour>
			<point x="147" y="-211" type="line"/>
			<point x="172" y="-222"/>
			<point x="202" y="-227"/>
			<point x="243" y="-227" type="curve" smooth="yes"/>
			<point x="326" y="-227"/>
			<point x="372" y="-188"/>
			<point x="372" y="-137" type="curve" smooth="yes"/>
			<point x="372" y="-89"/>
			<point x="317" y="-30"/>
			<point x="259" y="0" type="curve"/>
			<point x="220" y="0" type="line"/>
			<point x="256" y="-50"/>
			<point x="268" y="-76"/>
			<point x="268" y="-115" type="curve" smooth="yes"/>
			<point x="268" y="-156"/>
			<point x="240" y="-170"/>
			<point x="211" y="-170" type="curve" smooth="yes"/>
			<point x="190" y="-170"/>
			<point x="175" y="-167"/>
			<point x="158" y="-161" type="curve"/>
		</contour>
		<component base="ze"/>
	</outline>
</glyph>
<glyph name="Kabashkir" format="2">
	<unicode hex="04A0"/>
	<advance width="831"/>
	<outline>
		<contour>
			<point x="20" y="463" type="line"/>
			<point x="114" y="463" type="line"/>
			<point x="138" y="652" type="line"/>
			<point x="55" y="593" type="line"/>
			<point x="303" y="593" type="line"/>
			<point x="303" y="652" type="line"/>
			<point x="22" y="652" type="line"/>
		</contour>
		<contour>
			<point x="303" y="577" type="line"/>
			<point x="313" y="578" type="line"/>
			<point x="475" y="593" type="line"/>
			<point x="475" y="652" type="line"/>
			<point x="303" y="652" type="line"/>
		</contour>
		<contour>
			<point x="144" y="0" type="line"/>
			<point x="475" y="0" type="line"/>
			<point x="475" y="59" type="line"/>
			<point x="323" y="74" type="line"/>
			<point x="290" y="74" type="line"/>
			<point x="144" y="59" type="line"/>
		</contour>
		<contour>
			<point x="211" y="0" type="curve"/>
			<point x="415" y="0" type="line"/>
			<point x="412" y="103"/>
			<point x="412" y="207"/>
			<point x="412" y="311" type="curve" smooth="yes"/>
			<point x="412" y="342" type="line" smooth="yes"/>
			<point x="412" y="447"/>
			<point x="412" y="551"/>
			<point x="415" y="652" type="curve"/>
			<point x="211" y="652" type="line"/>
			<point x="214" y="549"/>
			<point x="214" y="445"/>
			<point x="214" y="342" type="curve" smooth="yes"/>
			<point x="214" y="310" type="line" smooth="yes"/>
			<point x="214" y="205"/>
			<point x="214" y="101"/>
		</contour>
		<contour>
			<point x="557" y="96" type="line" smooth="yes"/>
			<point x="576" y="-1"/>
			<point x="628" y="-16"/>
			<point x="715" y="-16" type="curve" smooth="yes"/>
			<point x="746" y="-16"/>
			<point x="779" y="-13"/>
			<point x="826" y="0" type="curve"/>
			<point x="826" y="59" type="line"/>
			<point x="640" y="74" type="line"/>
			<point x="765" y="35" type="line"/>
			<point x="744" y="155" type="line" smooth="yes"/>
			<point x="722" y="283"/>
			<point x="644" y="333"/>
			<point x="467" y="337" type="curve"/>
			<point x="464" y="321" type="line"/>
			<point x="546" y="328"/>
			<point x="585" y="368"/>
			<point x="612" y="456" type="curve" smooth="yes"/>
			<point x="623" y="492"/>
			<point x="633" y="516"/>
			<point x="645" y="540" type="curve"/>
			<point x="594" y="506" type="line"/>
			<point x="620" y="504"/>
			<point x="651" y="500"/>
			<point x="681" y="500" type="curve" smooth="yes"/>
			<point x="757" y="500"/>
			<point x="788" y="543"/>
			<point x="788" y="586" type="curve" smooth="yes"/>
			<point x="788" y="644"/>
			<point x="754" y="672"/>
			<point x="686" y="672" type="curve"/>
			<point x="633" y="659"/>
			<point x="592" y="601"/>
			<point x="557" y="485" type="curve" smooth="yes"/>
			<point x="525" y="378"/>
			<point x="492" y="361"/>
			<point x="438" y="361" type="curve" smooth="yes"/>
			<point x="311" y="361" type="line"/>
			<point x="311" y="301" type="line"/>
			<point x="445" y="301" type="line" smooth="yes"/>
			<point x="488" y="301"/>
			<point x="521" y="281"/>
			<point x="530" y="234" type="curve" smooth="yes"/>
		</contour>
	</outline>
</glyph>
<glyph name="Ustraightstroke" format="2">
	<unicode hex="04B0"/>
	<advance width="621"/>
	<outline>
		<contour>
			<point x="537" y="231" type="line"/>
			<point x="537" y="294" type="line"/>
			<point x="75" y="294" type="line"/>
			<point x="75" y="231" type="line"/>
		</contour>
		<component base="Ustraight"/>
	</outline>
	<anchor name="aboveUC" x="357" y="682"/>
</glyph>
<glyph name="Chedescender" format="2">
	<unicode hex="04B6"/>
	<advance width="736"/>
	<outline>
		<contour>
			<point x="551" y="0" type="line"/>
			<point x="673" y="0" type="line"/>
			<point x="605" y="59" type="line"/>
			<point x="635" y="-190" type="line"/>
			<point x="721" y="-190" type="line"/>
			<point x="723" y="58" type="line"/>
			<point x="551" y="73" type="line"/>
		</contour>
		<component base="Che"/>
	</outline>
</glyph>
<glyph name="chedescender" format="2">
	<unicode hex="04B7"/>
	<advance width="633"/>
	<outline>
		<contour>
			<point x="552" y="0" type="line"/>
			<point x="480" y="57" type="line"/>
			<point x="528" y="-160" type="line"/>
			<point x="606" y="-160" type="line"/>
			<point x="610" y="53" type="line"/>
			<point x="461" y="69" type="line"/>
			<point x="461" y="0" type="line"/>
		</contour>
		<component base="che"/>
	</outline>
</glyph>
<glyph name="Schwacyr" format="2">
	<unicode hex="04D8"/>
	<advance width="663"/>
	<outline>
		<contour>
			<point x="323" y="-20" type="curve" smooth="yes"/>
			<point x="480" y="-20"/>
			<point x="635" y="89"/>
			<point x="635" y="328" type="curve" smooth="yes"/>
			<point x="635" y="543"/>
			<point x="496" y="672"/>
			<point x="290" y="672" type="curve" smooth="yes"/>
			<point x="198" y="672"/>
			<point x="137" y="648"/>
			<point x="87" y="620" type="curve"/>
			<point x="93" y="453" type="line"/>
			<point x="172" y="453" type="line"/>
			<point x="218" y="634" type="line"/>
			<point x="133" y="573" type="line"/>
			<point x="176" y="596"/>
			<point x="219" y="612"/>
			<point x="266" y="612" type="curve" smooth="yes"/>
			<point x="381" y="612"/>
			<point x="430" y="531"/>
			<point x="430" y="321" type="curve" smooth="yes"/>
			<point x="430" y="142"/>
			<point x="396" y="40"/>
			<point x="325" y="40" type="curve" smooth="yes"/>
			<point x="271" y="40"/>
			<point x="227" y="88"/>
			<point x="227" y="212" type="curve" smooth="yes"/>
			<point x="227" y="243"/>
			<point x="228" y="270"/>
			<point x="234" y="301" type="curve"/>
			<point x="533" y="301" type="line"/>
			<point x="533" y="364" type="line"/>
			<point x="36" y="364" type="line"/>
			<point x="30" y="333"/>
			<point x="28" y="309"/>
			<point x="28" y="271" type="curve" smooth="yes"/>
			<point x="28" y="110"/>
			<point x="118" y="-20"/>
		</contour>
	</outline>
</glyph>
<glyph name="b.sups" format="2">
	<unicode hex="1D47"/>
	<advance width="408"/>
	<outline>
		<contour>
			<point x="54" y="406" type="line"/>
			<point x="80" y="449" type="line"/>
			<point x="18" y="436" type="line"/>
			<point x="18" y="406" type="line"/>
			<point x="147" y="395" type="line"/>
			<point x="165" y="454" type="line"/>
			<point x="165" y="866" type="line"/>
			<point x="154" y="872" type="line"/>
			<point x="11" y="843" type="line"/>
			<point x="11" y="816" type="line"/>
			<point x="54" y="811" type="line"/>
		</contour>
		<contour>
			<point x="273" y="564" type="curve" smooth="yes"/>
			<point x="273" y="487"/>
			<point x="245" y="450"/>
			<point x="207" y="450" type="curve" smooth="yes"/>
			<point x="174" y="450"/>
			<point x="155" y="471"/>
			<point x="128" y="508" type="curve"/>
			<point x="122" y="496" type="line"/>
			<point x="151" y="428"/>
			<point x="186" y="396"/>
			<point x="247" y="396" type="curve" smooth="yes"/>
			<point x="323" y="396"/>
			<point x="391" y="461"/>
			<point x="391" y="566" type="curve" smooth="yes"/>
			<point x="391" y="673"/>
			<point x="333" y="731"/>
			<point x="260" y="731" type="curve" smooth="yes"/>
			<point x="199" y="731"/>
			<point x="155" y="698"/>
			<point x="116" y="629" type="curve"/>
			<point x="122" y="618" type="line"/>
			<point x="142" y="642"/>
			<point x="172" y="676"/>
			<point x="208" y="676" type="curve" smooth="yes"/>
			<point x="247" y="676"/>
			<point x="273" y="641"/>
		</contour>
	</outline>
</glyph>
<glyph name="g.sups" format="2">
	<unicode hex="1D4D"/>
	<advance width="365"/>
	<outline>
		<contour>
			<point x="164" y="295" type="curve" smooth="yes"/>
			<point x="103" y="295"/>
			<point x="74" y="311"/>
			<point x="74" y="350" type="curve" smooth="yes"/>
			<point x="74" y="371"/>
			<point x="79" y="382"/>
			<point x="93" y="403" type="curve"/>
			<point x="82" y="408" type="line"/>
			<point x="33" y="390"/>
			<point x="9" y="365"/>
			<point x="9" y="333" type="curve" smooth="yes"/>
			<point x="9" y="293"/>
			<point x="41" y="257"/>
			<point x="153" y="257" type="curve" smooth="yes"/>
			<point x="286" y="257"/>
			<point x="357" y="312"/>
			<point x="357" y="377" type="curve" smooth="yes"/>
			<point x="357" y="434"/>
			<point x="320" y="472"/>
			<point x="212" y="472" type="curve" smooth="yes"/>
			<point x="141" y="472" type="line" smooth="yes"/>
			<point x="110" y="472"/>
			<point x="96" y="482"/>
			<point x="96" y="502" type="curve" smooth="yes"/>
			<point x="96" y="516"/>
			<point x="101" y="527"/>
			<point x="110" y="539" type="curve"/>
			<point x="94" y="548" type="line"/>
			<point x="47" y="522"/>
			<point x="26" y="496"/>
			<point x="26" y="460" type="curve" smooth="yes"/>
			<point x="26" y="421"/>
			<point x="61" y="380"/>
			<point x="149" y="380" type="curve" smooth="yes"/>
			<point x="217" y="380" type="line" smooth="yes"/>
			<point x="253" y="380"/>
			<point x="265" y="364"/>
			<point x="265" y="346" type="curve" smooth="yes"/>
			<point x="265" y="317"/>
			<point x="231" y="295"/>
		</contour>
		<contour>
			<point x="26" y="627" type="curve" smooth="yes"/>
			<point x="26" y="566"/>
			<point x="70" y="522"/>
			<point x="168" y="522" type="curve" smooth="yes"/>
			<point x="265" y="522"/>
			<point x="310" y="567"/>
			<point x="310" y="627" type="curve" smooth="yes"/>
			<point x="310" y="688"/>
			<point x="266" y="731"/>
			<point x="168" y="731" type="curve" smooth="yes"/>
			<point x="71" y="731"/>
			<point x="26" y="687"/>
		</contour>
		<contour>
			<point x="168" y="701" type="curve" smooth="yes"/>
			<point x="197" y="701"/>
			<point x="212" y="673"/>
			<point x="212" y="627" type="curve" smooth="yes"/>
			<point x="212" y="581"/>
			<point x="198" y="552"/>
			<point x="168" y="552" type="curve" smooth="yes"/>
			<point x="137" y="552"/>
			<point x="125" y="580"/>
			<point x="125" y="626" type="curve" smooth="yes"/>
			<point x="125" y="673"/>
			<point x="139" y="701"/>
		</contour>
		<contour>
			<point x="261" y="701" type="line"/>
			<point x="261" y="676" type="line"/>
			<point x="362" y="676" type="line"/>
			<point x="362" y="725" type="line"/>
			<point x="351" y="732" type="line"/>
		</contour>
	</outline>
</glyph>
<glyph name="k.sups" format="2">
	<unicode hex="1D4F"/>
	<advance width="404"/>
	<outline>
		<contour>
			<point x="309" y="681" type="line"/>
			<point x="384" y="690" type="line"/>
			<point x="384" y="719" type="line"/>
			<point x="228" y="719" type="line"/>
			<point x="228" y="690" type="line"/>
			<point x="296" y="681" type="line"/>
		</contour>
		<contour>
			<point x="311" y="719" type="line"/>
			<point x="107" y="529" type="line"/>
			<point x="107" y="489" type="line"/>
			<point x="365" y="719" type="line"/>
		</contour>
		<contour>
			<point x="11" y="843" type="line"/>
			<point x="11" y="816" type="line"/>
			<point x="54" y="809" type="line"/>
			<point x="54" y="406" type="line"/>
			<point x="165" y="406" type="line"/>
			<point x="165" y="866" type="line"/>
			<point x="154" y="872" type="line"/>
		</contour>
		<contour>
			<point x="135" y="449" type="line"/>
			<point x="80" y="449" type="line"/>
			<point x="20" y="436" type="line"/>
			<point x="20" y="406" type="line"/>
			<point x="195" y="406" type="line"/>
			<point x="195" y="436" type="line"/>
		</contour>
		<contour>
			<point x="374" y="416" type="line"/>
			<point x="259" y="639" type="line"/>
			<point x="181" y="576" type="line"/>
			<point x="261" y="406" type="line"/>
			<point x="402" y="406" type="line"/>
			<point x="402" y="436" type="line"/>
			<point x="310" y="457" type="line"/>
		</contour>
	</outline>
</glyph>
<glyph name="f.sups" format="2">
	<unicode hex="1DA0"/>
	<advance width="234"/>
	<outline>
		<contour>
			<point x="150" y="449" type="line"/>
			<point x="77" y="449" type="line"/>
			<point x="12" y="436" type="line"/>
			<point x="12" y="406" type="line"/>
			<point x="211" y="406" type="line"/>
			<point x="211" y="436" type="line"/>
		</contour>
		<contour>
			<point x="104" y="719" type="line"/>
			<point x="104" y="675" type="line"/>
			<point x="223" y="675" type="line"/>
			<point x="223" y="719" type="line"/>
		</contour>
		<contour>
			<point x="48" y="406" type="line"/>
			<point x="159" y="406" type="line"/>
			<point x="159" y="687" type="line"/>
			<point x="154" y="768"/>
			<point x="158" y="815"/>
			<point x="188" y="846" type="curve" smooth="yes"/>
			<point x="195" y="856"/>
			<point x="214" y="867"/>
			<point x="227" y="867" type="curve" smooth="yes"/>
			<point x="235" y="867"/>
			<point x="244" y="864"/>
			<point x="249" y="859" type="curve"/>
			<point x="243" y="878" type="line"/>
			<point x="177" y="864" type="line"/>
			<point x="192" y="842" type="line" smooth="yes"/>
			<point x="210" y="810"/>
			<point x="230" y="797"/>
			<point x="253" y="797" type="curve" smooth="yes"/>
			<point x="283" y="797"/>
			<point x="301" y="815"/>
			<point x="301" y="839" type="curve"/>
			<point x="293" y="874"/>
			<point x="258" y="885"/>
			<point x="220" y="885" type="curve" smooth="yes"/>
			<point x="181" y="885"/>
			<point x="142" y="874"/>
			<point x="106" y="842" type="curve" smooth="yes"/>
			<point x="79" y="817"/>
			<point x="55" y="780"/>
			<point x="48" y="705" type="curve"/>
			<point x="86" y="723" type="line"/>
			<point x="10" y="714" type="line"/>
			<point x="10" y="675" type="line"/>
			<point x="48" y="675" type="line"/>
		</contour>
	</outline>
</glyph>
<glyph name="hryvnia" format="1">
	<unicode hex="20B4"/>
	<advance width="560"/>
	<outline>
		<contour>
			<point x="28" y="215" type="line"/>
			<point x="533" y="215" type="line"/>
			<point x="533" y="275" type="line"/>
			<point x="28" y="275" type="line"/>
		</contour>
		<contour>
			<point x="28" y="351" type="line"/>
			<point x="533" y="351" type="line"/>
			<point x="533" y="411" type="line"/>
			<point x="28" y="411" type="line"/>
		</contour>
		<contour>
			<point x="63" y="124" type="curve" smooth="yes"/>
			<point x="63" y="29"/>
			<point x="153" y="-15"/>
			<point x="288" y="-15" type="curve" smooth="yes"/>
			<point x="427" y="-15"/>
			<point x="487" y="39"/>
			<point x="495" y="124" type="curve"/>
			<point x="488" y="161"/>
			<point x="459" y="180"/>
			<point x="433" y="180" type="curve" smooth="yes"/>
			<point x="390" y="180"/>
			<point x="366" y="156"/>
			<point x="358" y="104" type="curve"/>
			<point x="345" y="19" type="line"/>
			<point x="393" y="49" type="line"/>
			<point x="373" y="43"/>
			<point x="352" y="39"/>
			<point x="324" y="39" type="curve" smooth="yes"/>
			<point x="280" y="39"/>
			<point x="243" y="70"/>
			<point x="243" y="135" type="curve" smooth="yes"/>
			<point x="243" y="181"/>
			<point x="252" y="209"/>
			<point x="276" y="240" type="curve"/>
			<point x="120" y="240" type="line"/>
			<point x="80" y="202"/>
			<point x="63" y="164"/>
		</contour>
		<contour>
			<point x="137" y="455" type="curve" smooth="yes"/>
			<point x="175" y="455"/>
			<point x="210" y="466"/>
			<point x="221" y="539" type="curve"/>
			<point x="230" y="604" type="line"/>
			<point x="184" y="578" type="line"/>
			<point x="203" y="583"/>
			<point x="219" y="585"/>
			<point x="240" y="585" type="curve" smooth="yes"/>
			<point x="285" y="585"/>
			<point x="318" y="551"/>
			<point x="318" y="501" type="curve" smooth="yes"/>
			<point x="318" y="465"/>
			<point x="312" y="433"/>
			<point x="280" y="381" type="curve"/>
			<point x="422" y="381" type="line"/>
			<point x="472" y="423"/>
			<point x="488" y="449"/>
			<point x="488" y="502" type="curve" smooth="yes"/>
			<point x="488" y="593"/>
			<point x="416" y="640"/>
			<point x="298" y="640" type="curve" smooth="yes"/>
			<point x="163" y="640"/>
			<point x="76" y="585"/>
			<point x="76" y="507" type="curve"/>
			<point x="86" y="468"/>
			<point x="112" y="455"/>
		</contour>
		<contour>
			<point x="117" y="246" type="line"/>
			<point x="285" y="246" type="line"/>
			<point x="427" y="374" type="line"/>
			<point x="259" y="374" type="line"/>
		</contour>
	</outline>
</glyph>
<glyph name="cedi" format="2">
	<unicode hex="20B5"/>
	<advance width="560"/>
	<outline>
		<contour>
			<point x="351" y="-16" type="curve" smooth="yes"/>
			<point x="463" y="-16"/>
			<point x="538" y="39"/>
			<point x="538" y="119" type="curve"/>
			<point x="528" y="155"/>
			<point x="508" y="172"/>
			<point x="480" y="172" type="curve" smooth="yes"/>
			<point x="449" y="172"/>
			<point x="416" y="159"/>
			<point x="406" y="88" type="curve" smooth="yes"/>
			<point x="397" y="24" type="line"/>
			<point x="484" y="67" type="line"/>
			<point x="439" y="46"/>
			<point x="418" y="39"/>
			<point x="351" y="39" type="curve" smooth="yes"/>
			<point x="281" y="39"/>
			<point x="233" y="104"/>
			<point x="233" y="319" type="curve" smooth="yes"/>
			<point x="233" y="534"/>
			<point x="275" y="585"/>
			<point x="359" y="585" type="curve" smooth="yes"/>
			<point x="401" y="585"/>
			<point x="428" y="581"/>
			<point x="480" y="557" type="curve"/>
			<point x="393" y="600" type="line"/>
			<point x="402" y="536" type="line" smooth="yes"/>
			<point x="412" y="465"/>
			<point x="445" y="452"/>
			<point x="480" y="452" type="curve" smooth="yes"/>
			<point x="504" y="452"/>
			<point x="526" y="470"/>
			<point x="534" y="505" type="curve"/>
			<point x="534" y="585"/>
			<point x="463" y="640"/>
			<point x="357" y="640" type="curve" smooth="yes"/>
			<point x="199" y="639"/>
			<point x="66" y="550"/>
			<point x="66" y="314" type="curve" smooth="yes"/>
			<point x="66" y="78"/>
			<point x="184" y="-16"/>
		</contour>
		<contour>
			<point x="301" y="-115" type="line"/>
			<point x="372" y="-115" type="line"/>
			<point x="372" y="731" type="line"/>
			<point x="301" y="731" type="line"/>
		</contour>
	</outline>
</glyph>
<glyph name="triangleblackup" format="2">
	<unicode hex="25B2"/>
	<advance width="620"/>
	<outline>
		<contour>
			<point x="5" y="47" type="line"/>
			<point x="29" y="7" type="line"/>
			<point x="591" y="7" type="line"/>
			<point x="615" y="47" type="line"/>
			<point x="334" y="534" type="line"/>
			<point x="285" y="534" type="line"/>
		</contour>
	</outline>
</glyph>
<glyph name="triangleblackdown" format="2">
	<unicode hex="25BC"/>
	<advance width="620"/>
	<outline>
		<contour>
			<point x="615" y="494" type="line"/>
			<point x="591" y="534" type="line"/>
			<point x="29" y="534" type="line"/>
			<point x="5" y="494" type="line"/>
			<point x="285" y="7" type="line"/>
			<point x="334" y="7" type="line"/>
		</contour>
	</outline>
</glyph>
<glyph name="fisheye" format="1">
	<unicode hex="25C9"/>
	<advance width="500"/>
	<outline>
		<contour>
			<point x="250" y="234" type="curve" smooth="yes"/>
			<point x="300" y="234"/>
			<point x="335" y="269"/>
			<point x="335" y="320" type="curve" smooth="yes"/>
			<point x="335" y="371"/>
			<point x="299" y="406"/>
			<point x="250" y="406" type="curve" smooth="yes"/>
			<point x="201" y="406"/>
			<point x="165" y="371"/>
			<point x="165" y="320" type="curve" smooth="yes"/>
			<point x="165" y="269"/>
			<point x="201" y="234"/>
		</contour>
		<contour>
			<point x="250" y="174" type="curve" smooth="yes"/>
			<point x="165" y="174"/>
			<point x="106" y="234"/>
			<point x="106" y="320" type="curve" smooth="yes"/>
			<point x="106" y="406"/>
			<point x="166" y="466"/>
			<point x="250" y="466" type="curve" smooth="yes"/>
			<point x="333" y="466"/>
			<point x="394" y="406"/>
			<point x="394" y="320" type="curve" smooth="yes"/>
			<point x="394" y="234"/>
			<point x="334" y="174"/>
		</contour>
		<contour>
			<point x="250" y="100" type="curve" smooth="yes"/>
			<point x="380" y="100"/>
			<point x="474" y="194"/>
			<point x="474" y="320" type="curve" smooth="yes"/>
			<point x="474" y="447"/>
			<point x="380" y="540"/>
			<point x="250" y="540" type="curve" smooth="yes"/>
			<point x="120" y="540"/>
			<point x="26" y="447"/>
			<point x="26" y="320" type="curve" smooth="yes"/>
			<point x="26" y="194"/>
			<point x="120" y="100"/>
		</contour>
	</outline>
</glyph>
<glyph name="f_l" format="2">
	<unicode hex="FB02"/>
	<advance width="648"/>
	<outline>
		<contour>
			<point x="71" y="0" type="curve"/>
			<point x="267" y="0" type="line"/>
			<point x="265" y="70"/>
			<point x="264" y="140"/>
			<point x="264" y="210" type="curve" smooth="yes"/>
			<point x="264" y="431" type="line"/>
			<point x="256" y="563"/>
			<point x="262" y="635"/>
			<point x="304" y="677" type="curve" smooth="yes"/>
			<point x="319" y="692"/>
			<point x="333" y="700"/>
			<point x="361" y="707" type="curve"/>
			<point x="281" y="707" type="line"/>
			<point x="300" y="662" type="line" smooth="yes"/>
			<point x="324" y="608"/>
			<point x="354" y="585"/>
			<point x="400" y="585" type="curve" smooth="yes"/>
			<point x="445" y="585"/>
			<point x="462" y="615"/>
			<point x="462" y="656" type="curve"/>
			<point x="450" y="713"/>
			<point x="396" y="731"/>
			<point x="340" y="731" type="curve" smooth="yes"/>
			<point x="278" y="731"/>
			<point x="206" y="705"/>
			<point x="160" y="659" type="curve" smooth="yes"/>
			<point x="108" y="607"/>
			<point x="84" y="557"/>
			<point x="74" y="459" type="curve"/>
			<point x="138" y="493" type="line"/>
			<point x="17" y="478" type="line"/>
			<point x="17" y="412" type="line"/>
			<point x="74" y="412" type="line"/>
			<point x="74" y="210" type="line" smooth="yes"/>
			<point x="74" y="140"/>
			<point x="73" y="70"/>
		</contour>
		<contour>
			<point x="27" y="0" type="line"/>
			<point x="322" y="0" type="line"/>
			<point x="322" y="51" type="line"/>
			<point x="254" y="71" type="line"/>
			<point x="120" y="71" type="line"/>
			<point x="27" y="51" type="line"/>
		</contour>
		<contour>
			<point x="170" y="412" type="line"/>
			<point x="356" y="412" type="line"/>
			<point x="356" y="487" type="line"/>
			<point x="170" y="487" type="line"/>
		</contour>
		<contour>
			<point x="353" y="0" type="line"/>
			<point x="625" y="0" type="line"/>
			<point x="625" y="51" type="line"/>
			<point x="533" y="71" type="line"/>
			<point x="436" y="71" type="line"/>
			<point x="353" y="51" type="line"/>
		</contour>
		<contour>
			<point x="391" y="0" type="curve"/>
			<point x="587" y="0" type="line"/>
			<point x="585" y="70"/>
			<point x="584" y="140"/>
			<point x="584" y="210" type="curve" smooth="yes"/>
			<point x="584" y="571" type="line"/>
			<point x="588" y="710" type="line"/>
			<point x="571" y="721" type="line"/>
			<point x="394" y="676" type="line"/>
			<point x="394" y="210" type="line" smooth="yes"/>
			<point x="394" y="140"/>
			<point x="393" y="70"/>
		</contour>
	</outline>
</glyph>
<glyph name="B.sups" format="2">
	<advance width="445"/>
	<outline>
		<contour>
			<point x="68" y="406" type="line"/>
			<point x="196" y="406" type="line"/>
			<point x="196" y="824" type="line"/>
			<point x="68" y="824" type="line"/>
		</contour>
		<contour>
			<point x="123" y="777" type="line"/>
			<point x="134" y="777" type="line"/>
			<point x="134" y="824" type="line"/>
			<point x="24" y="824" type="line"/>
			<point x="24" y="787" type="line"/>
		</contour>
		<contour>
			<point x="123" y="453" type="line"/>
			<point x="24" y="443" type="line"/>
			<point x="24" y="406" type="line"/>
			<point x="134" y="406" type="line"/>
			<point x="134" y="453" type="line"/>
		</contour>
		<contour>
			<point x="134" y="607" type="line"/>
			<point x="213" y="607" type="line" smooth="yes"/>
			<point x="272" y="607"/>
			<point x="301" y="583"/>
			<point x="301" y="526" type="curve" smooth="yes"/>
			<point x="301" y="472"/>
			<point x="267" y="445"/>
			<point x="213" y="445" type="curve" smooth="yes"/>
			<point x="134" y="445" type="line"/>
			<point x="134" y="406" type="line"/>
			<point x="215" y="406" type="line" smooth="yes"/>
			<point x="392" y="406"/>
			<point x="430" y="472"/>
			<point x="430" y="524" type="curve" smooth="yes"/>
			<point x="430" y="589"/>
			<point x="382" y="627"/>
			<point x="261" y="634" type="curve"/>
			<point x="261" y="628" type="line"/>
			<point x="374" y="641"/>
			<point x="403" y="680"/>
			<point x="403" y="727" type="curve" smooth="yes"/>
			<point x="403" y="782"/>
			<point x="364" y="824"/>
			<point x="245" y="824" type="curve" smooth="yes"/>
			<point x="134" y="824" type="line"/>
			<point x="134" y="785" type="line"/>
			<point x="213" y="785" type="line" smooth="yes"/>
			<point x="261" y="785"/>
			<point x="282" y="761"/>
			<point x="282" y="718" type="curve" smooth="yes"/>
			<point x="282" y="670"/>
			<point x="258" y="643"/>
			<point x="209" y="643" type="curve" smooth="yes"/>
			<point x="134" y="643" type="line"/>
		</contour>
	</outline>
</glyph>
<glyph name="Ef.bgr" format="2">
	<advance width="820"/>
	<outline>
		<contour>
			<point x="246" y="-53" type="line"/>
			<point x="575" y="-53" type="line"/>
			<point x="575" y="6" type="line"/>
			<point x="425" y="21" type="line"/>
			<point x="392" y="21" type="line"/>
			<point x="246" y="6" type="line"/>
		</contour>
		<contour>
			<point x="325" y="-53" type="line"/>
			<point x="495" y="-53" type="line"/>
			<point x="495" y="708" type="line"/>
			<point x="325" y="708" type="line"/>
		</contour>
		<contour>
			<point x="350" y="47" type="curve"/>
			<point x="350" y="108" type="line"/>
			<point x="258" y="108"/>
			<point x="223" y="194"/>
			<point x="223" y="326" type="curve" smooth="yes"/>
			<point x="223" y="459"/>
			<point x="258" y="549"/>
			<point x="350" y="549" type="curve"/>
			<point x="350" y="609" type="line"/>
			<point x="182" y="609"/>
			<point x="28" y="518"/>
			<point x="28" y="326" type="curve" smooth="yes"/>
			<point x="28" y="136"/>
			<point x="181" y="47"/>
		</contour>
		<contour>
			<point x="470" y="47" type="line"/>
			<point x="639" y="47"/>
			<point x="792" y="137"/>
			<point x="792" y="326" type="curve" smooth="yes"/>
			<point x="792" y="518"/>
			<point x="638" y="609"/>
			<point x="470" y="609" type="curve"/>
			<point x="470" y="549" type="line"/>
			<point x="562" y="549"/>
			<point x="597" y="459"/>
			<point x="597" y="326" type="curve" smooth="yes"/>
			<point x="597" y="194"/>
			<point x="562" y="108"/>
			<point x="470" y="108" type="curve"/>
		</contour>
		<contour>
			<point x="246" y="649" type="line"/>
			<point x="392" y="634" type="line"/>
			<point x="425" y="634" type="line"/>
			<point x="575" y="649" type="line"/>
			<point x="575" y="708" type="line"/>
			<point x="246" y="708" type="line"/>
		</contour>
	</outline>
</glyph>
<glyph name="Ef.sc" format="2">
	<advance width="729"/>
	<outline>
		<contour>
			<point x="15" y="267" type="curve" smooth="yes"/>
			<point x="15" y="160"/>
			<point x="99" y="82"/>
			<point x="274" y="82" type="curve" smooth="yes"/>
			<point x="356" y="82" type="line"/>
			<point x="356" y="134" type="line"/>
			<point x="283" y="134" type="line" smooth="yes"/>
			<point x="208" y="134"/>
			<point x="181" y="199"/>
			<point x="181" y="266" type="curve" smooth="yes"/>
			<point x="181" y="337"/>
			<point x="208" y="397"/>
			<point x="283" y="397" type="curve" smooth="yes"/>
			<point x="356" y="397" type="line"/>
			<point x="356" y="449" type="line"/>
			<point x="274" y="449" type="line" smooth="yes"/>
			<point x="94" y="449"/>
			<point x="15" y="374"/>
		</contour>
		<contour>
			<point x="215" y="-8" type="line"/>
			<point x="516" y="-8" type="line"/>
			<point x="516" y="46" type="line"/>
			<point x="380" y="59" type="line"/>
			<point x="347" y="59" type="line"/>
			<point x="215" y="46" type="line"/>
		</contour>
		<contour>
			<point x="215" y="490" type="line"/>
			<point x="347" y="477" type="line"/>
			<point x="380" y="477" type="line"/>
			<point x="516" y="490" type="line"/>
			<point x="516" y="544" type="line"/>
			<point x="215" y="544" type="line"/>
		</contour>
		<contour>
			<point x="281" y="-8" type="curve"/>
			<point x="448" y="-8" type="line"/>
			<point x="445" y="76"/>
			<point x="445" y="162"/>
			<point x="445" y="247" type="curve" smooth="yes"/>
			<point x="445" y="289" type="line" smooth="yes"/>
			<point x="445" y="376"/>
			<point x="445" y="461"/>
			<point x="448" y="544" type="curve"/>
			<point x="281" y="544" type="line"/>
			<point x="284" y="460"/>
			<point x="284" y="374"/>
			<point x="284" y="289" type="curve" smooth="yes"/>
			<point x="284" y="246" type="line" smooth="yes"/>
			<point x="284" y="160"/>
			<point x="284" y="75"/>
		</contour>
		<contour>
			<point x="374" y="82" type="line"/>
			<point x="456" y="82" type="line" smooth="yes"/>
			<point x="630" y="82"/>
			<point x="715" y="162"/>
			<point x="715" y="268" type="curve" smooth="yes"/>
			<point x="715" y="374"/>
			<point x="635" y="449"/>
			<point x="456" y="449" type="curve" smooth="yes"/>
			<point x="374" y="449" type="line"/>
			<point x="374" y="397" type="line"/>
			<point x="447" y="397" type="line" smooth="yes"/>
			<point x="522" y="397"/>
			<point x="548" y="335"/>
			<point x="548" y="266" type="curve" smooth="yes"/>
			<point x="548" y="202"/>
			<point x="522" y="134"/>
			<point x="447" y="134" type="curve" smooth="yes"/>
			<point x="374" y="134" type="line"/>
		</contour>
	</outline>
</glyph>
<glyph name="Ef.scbgr" format="2">
	<advance width="729"/>
	<outline>
		<contour>
			<point x="216" y="-58" type="line"/>
			<point x="516" y="-58" type="line"/>
			<point x="516" y="-4" type="line"/>
			<point x="380" y="9" type="line"/>
			<point x="348" y="9" type="line"/>
			<point x="216" y="-4" type="line"/>
		</contour>
		<contour>
			<point x="216" y="540" type="line"/>
			<point x="348" y="527" type="line"/>
			<point x="380" y="527" type="line"/>
			<point x="516" y="540" type="line"/>
			<point x="516" y="594" type="line"/>
			<point x="216" y="594" type="line"/>
		</contour>
		<contour>
			<point x="286" y="-58" type="line"/>
			<point x="442" y="-58" type="line"/>
			<point x="442" y="594" type="line"/>
			<point x="286" y="594" type="line"/>
		</contour>
		<contour>
			<point x="234" y="268" type="curve" smooth="yes"/>
			<point x="234" y="374"/>
			<point x="271" y="447"/>
			<point x="364" y="447" type="curve" smooth="yes"/>
			<point x="459" y="447"/>
			<point x="494" y="374"/>
			<point x="494" y="268" type="curve" smooth="yes"/>
			<point x="494" y="161"/>
			<point x="459" y="90"/>
			<point x="364" y="90" type="curve" smooth="yes"/>
			<point x="271" y="90"/>
			<point x="234" y="161"/>
		</contour>
		<contour>
			<point x="364" y="502" type="curve" smooth="yes"/>
			<point x="210" y="502"/>
			<point x="68" y="427"/>
			<point x="68" y="268" type="curve" smooth="yes"/>
			<point x="68" y="109"/>
			<point x="210" y="34"/>
			<point x="364" y="34" type="curve" smooth="yes"/>
			<point x="520" y="34"/>
			<point x="660" y="109"/>
			<point x="660" y="268" type="curve" smooth="yes"/>
			<point x="660" y="427"/>
			<point x="518" y="502"/>
		</contour>
	</outline>
</glyph>
<glyph name="Endescender.sc" format="2">
	<advance width="722"/>
	<outline>
		<contour>
			<point x="554" y="0" type="line"/>
			<point x="664" y="0" type="line"/>
			<point x="606" y="54" type="line"/>
			<point x="623" y="-153" type="line"/>
			<point x="710" y="-153" type="line"/>
			<point x="711" y="55" type="line"/>
			<point x="554" y="66" type="line"/>
		</contour>
		<component base="En.sc"/>
	</outline>
</glyph>
<glyph name="Esdescender.sc" format="1">
	<advance width="591"/>
	<outline>
		<contour>
			<point x="239" y="-211" type="line"/>
			<point x="264" y="-222"/>
			<point x="294" y="-227"/>
			<point x="335" y="-227" type="curve" smooth="yes"/>
			<point x="418" y="-227"/>
			<point x="464" y="-188"/>
			<point x="464" y="-137" type="curve" smooth="yes"/>
			<point x="464" y="-89"/>
			<point x="409" y="-30"/>
			<point x="351" y="0" type="curve"/>
			<point x="312" y="0" type="line"/>
			<point x="348" y="-50"/>
			<point x="360" y="-76"/>
			<point x="360" y="-115" type="curve" smooth="yes"/>
			<point x="360" y="-156"/>
			<point x="332" y="-170"/>
			<point x="303" y="-170" type="curve" smooth="yes"/>
			<point x="282" y="-170"/>
			<point x="267" y="-167"/>
			<point x="250" y="-161" type="curve"/>
		</contour>
		<component base="Es.sc"/>
	</outline>
</glyph>
<glyph name="Izhitsa.sc" format="2">
	<advance width="630"/>
	<outline>
		<contour>
			<point x="8" y="481" type="line"/>
			<point x="146" y="469" type="line"/>
			<point x="183" y="469" type="line"/>
			<point x="321" y="485" type="line"/>
			<point x="321" y="536" type="line"/>
			<point x="8" y="536" type="line"/>
		</contour>
		<contour>
			<point x="247" y="0" type="line"/>
			<point x="355" y="0" type="line"/>
			<point x="457" y="296" type="line" smooth="yes"/>
			<point x="491" y="395"/>
			<point x="516" y="455"/>
			<point x="549" y="499" type="curve"/>
			<point x="490" y="430" type="line"/>
			<point x="516" y="417"/>
			<point x="547" y="415"/>
			<point x="561" y="415" type="curve" smooth="yes"/>
			<point x="620" y="415"/>
			<point x="651" y="440"/>
			<point x="658" y="486" type="curve"/>
			<point x="652" y="530"/>
			<point x="623" y="552"/>
			<point x="577" y="552" type="curve" smooth="yes"/>
			<point x="508" y="552"/>
			<point x="464" y="521"/>
			<point x="438" y="438" type="curve" smooth="yes"/>
			<point x="339" y="119" type="line"/>
			<point x="372" y="138" type="line"/>
			<point x="227" y="536" type="line"/>
			<point x="34" y="536" type="line"/>
		</contour>
	</outline>
</glyph>
<glyph name="Lcaron.sc" format="1">
	<advance width="545"/>
	<outline>
		<contour>
			<point x="513" y="621" type="curve" smooth="yes"/>
			<point x="493" y="621"/>
			<point x="475" y="616"/>
			<point x="453" y="603" type="curve"/>
			<point x="448" y="404" type="line"/>
			<point x="503" y="404" type="line"/>
			<point x="536" y="469" type="line" smooth="yes"/>
			<point x="555" y="507"/>
			<point x="566" y="541"/>
			<point x="566" y="569" type="curve" smooth="yes"/>
			<point x="566" y="600"/>
			<point x="556" y="621"/>
		</contour>
		<component base="L.sc"/>
	</outline>
</glyph>
<glyph name="Oslash.sc" format="2">
	<advance width="670"/>
	<outline>
		<contour>
			<point x="616" y="521" type="line"/>
			<point x="553" y="568" type="line"/>
			<point x="54" y="15" type="line"/>
			<point x="117" y="-32" type="line"/>
		</contour>
		<component base="O.sc"/>
	</outline>
	<anchor name="aboveUC" x="335" y="560"/>
</glyph>
<glyph name="T.sups" format="2">
	<advance width="435"/>
	<outline>
		<contour>
			<point x="200" y="453" type="line"/>
			<point x="100" y="443" type="line"/>
			<point x="100" y="406" type="line"/>
			<point x="336" y="406" type="line"/>
			<point x="336" y="443" type="line"/>
			<point x="234" y="453" type="line"/>
		</contour>
		<contour>
			<point x="153" y="406" type="line"/>
			<point x="283" y="406" type="line"/>
			<point x="283" y="824" type="line"/>
			<point x="153" y="824" type="line"/>
		</contour>
		<contour>
			<point x="394" y="786" type="line"/>
			<point x="342" y="824" type="line"/>
			<point x="358" y="703" type="line"/>
			<point x="418" y="703" type="line"/>
			<point x="417" y="824" type="line"/>
			<point x="19" y="824" type="line"/>
			<point x="17" y="703" type="line"/>
			<point x="78" y="703" type="line"/>
			<point x="94" y="824" type="line"/>
			<point x="41" y="786" type="line"/>
		</contour>
	</outline>
</glyph>
<glyph name="Ucyr.sc" format="2">
	<advance width="585"/>
	<outline>
		<contour>
			<point x="8" y="481" type="line"/>
			<point x="142" y="469" type="line"/>
			<point x="189" y="469" type="line"/>
			<point x="320" y="481" type="line"/>
			<point x="320" y="536" type="line"/>
			<point x="8" y="536" type="line"/>
		</contour>
		<contour>
			<point x="293" y="82" type="line"/>
			<point x="371" y="244" type="line"/>
			<point x="225" y="536" type="line"/>
			<point x="27" y="536" type="line"/>
		</contour>
		<contour>
			<point x="73" y="73" type="curve"/>
			<point x="73" y="0"/>
			<point x="124" y="-16"/>
			<point x="174" y="-16" type="curve" smooth="yes"/>
			<point x="274" y="-16"/>
			<point x="327" y="57"/>
			<point x="378" y="168" type="curve"/>
			<point x="547" y="536" type="line"/>
			<point x="464" y="536" type="line"/>
			<point x="318" y="179" type="line"/>
			<point x="294" y="114"/>
			<point x="248" y="59"/>
			<point x="179" y="30" type="curve"/>
			<point x="186" y="0" type="line"/>
			<point x="268" y="60" type="line"/>
			<point x="232" y="97"/>
			<point x="192" y="119"/>
			<point x="151" y="119" type="curve" smooth="yes"/>
			<point x="111" y="119"/>
			<point x="84" y="90"/>
		</contour>
		<contour>
			<point x="386" y="481" type="line"/>
			<point x="463" y="471" type="line"/>
			<point x="492" y="471" type="line"/>
			<point x="571" y="481" type="line"/>
			<point x="571" y="536" type="line"/>
			<point x="386" y="536" type="line"/>
		</contour>
	</outline>
	<anchor name="aboveUC" x="336" y="560"/>
</glyph>
<glyph name="Ustraightstroke.sc" format="1">
	<advance width="577"/>
	<outline>
		<contour>
			<point x="501" y="183" type="line"/>
			<point x="501" y="241" type="line"/>
			<point x="77" y="241" type="line"/>
			<point x="77" y="183" type="line"/>
		</contour>
		<component base="Ustraight.sc"/>
		<contour>
			<point name="aboveUC" x="328" y="560" type="move"/>
		</contour>
	</outline>
</glyph>
<glyph name="W.sups" format="2">
	<advance width="664"/>
	<outline>
		<contour>
			<point x="600" y="777" type="line"/>
			<point x="659" y="787" type="line"/>
			<point x="659" y="824" type="line"/>
			<point x="521" y="824" type="line"/>
			<point x="521" y="787" type="line"/>
			<point x="581" y="777" type="line"/>
		</contour>
		<contour>
			<point x="393" y="777" type="line"/>
			<point x="476" y="787" type="line"/>
			<point x="476" y="824" type="line"/>
			<point x="271" y="824" type="line"/>
			<point x="271" y="787" type="line"/>
			<point x="351" y="777" type="line"/>
		</contour>
		<contour>
			<point x="128" y="777" type="line"/>
			<point x="222" y="787" type="line"/>
			<point x="222" y="824" type="line"/>
			<point x="8" y="824" type="line"/>
			<point x="8" y="787" type="line"/>
			<point x="104" y="777" type="line"/>
		</contour>
		<contour>
			<point x="204" y="409" type="line"/>
			<point x="250" y="499" type="line"/>
			<point x="165" y="824" type="line"/>
			<point x="32" y="824" type="line"/>
			<point x="163" y="406" type="line"/>
			<point x="239" y="406" type="line"/>
			<point x="346" y="747" type="line"/>
			<point x="315" y="719" type="line"/>
			<point x="415" y="406" type="line"/>
			<point x="491" y="406" type="line"/>
			<point x="624" y="824" type="line"/>
			<point x="579" y="824" type="line"/>
			<point x="457" y="409" type="line"/>
			<point x="501" y="499" type="line"/>
			<point x="408" y="824" type="line"/>
			<point x="327" y="824" type="line"/>
		</contour>
	</outline>
</glyph>
<glyph name="be.srb" format="2">
	<advance width="580"/>
	<outline>
		<contour>
			<point x="283" y="-16" type="curve" smooth="yes"/>
			<point x="460" y="-16"/>
			<point x="554" y="81"/>
			<point x="554" y="215" type="curve" smooth="yes"/>
			<point x="554" y="338"/>
			<point x="482" y="415"/>
			<point x="371" y="447" type="curve" smooth="yes"/>
			<point x="284" y="472"/>
			<point x="198" y="486"/>
			<point x="198" y="506" type="curve" smooth="yes"/>
			<point x="198" y="510"/>
			<point x="199" y="512"/>
			<point x="201" y="514" type="curve" smooth="yes"/>
			<point x="226" y="539"/>
			<point x="475" y="546"/>
			<point x="521" y="592" type="curve" smooth="yes"/>
			<point x="544" y="615"/>
			<point x="559" y="669"/>
			<point x="561" y="762" type="curve"/>
			<point x="510" y="774" type="line"/>
			<point x="493" y="733" type="line"/>
			<point x="306" y="712"/>
			<point x="147" y="678"/>
			<point x="104" y="635" type="curve" smooth="yes"/>
			<point x="80" y="611"/>
			<point x="70" y="589"/>
			<point x="70" y="556" type="curve" smooth="yes"/>
			<point x="70" y="471"/>
			<point x="147" y="448"/>
			<point x="247" y="407" type="curve" smooth="yes"/>
			<point x="319" y="376"/>
			<point x="352" y="327"/>
			<point x="352" y="199" type="curve" smooth="yes"/>
			<point x="352" y="88"/>
			<point x="333" y="40"/>
			<point x="288" y="40" type="curve" smooth="yes"/>
			<point x="251" y="40"/>
			<point x="221" y="69"/>
			<point x="221" y="204" type="curve" smooth="yes"/>
			<point x="221" y="304"/>
			<point x="244" y="379"/>
			<point x="295" y="421" type="curve"/>
			<point x="287" y="431" type="line"/>
			<point x="190" y="410"/>
			<point x="22" y="363"/>
			<point x="22" y="206" type="curve" smooth="yes"/>
			<point x="22" y="57"/>
			<point x="130" y="-16"/>
		</contour>
	</outline>
</glyph>
<glyph name="braceleft.sc" format="2">
	<advance width="341"/>
	<outline>
		<contour>
			<point x="56" y="201" type="line"/>
			<point x="133" y="184"/>
			<point x="147" y="168"/>
			<point x="147" y="140" type="curve" smooth="yes"/>
			<point x="147" y="81"/>
			<point x="93" y="40"/>
			<point x="93" y="-22" type="curve" smooth="yes"/>
			<point x="93" y="-98"/>
			<point x="170" y="-131"/>
			<point x="272" y="-131" type="curve" smooth="yes"/>
			<point x="299" y="-131" type="line"/>
			<point x="299" y="-77" type="line"/>
			<point x="274" y="-75" type="line" smooth="yes"/>
			<point x="241" y="-71"/>
			<point x="220" y="-49"/>
			<point x="220" y="-16" type="curve" smooth="yes"/>
			<point x="220" y="23"/>
			<point x="248" y="69"/>
			<point x="248" y="115" type="curve" smooth="yes"/>
			<point x="248" y="184"/>
			<point x="190" y="237"/>
			<point x="91" y="243" type="curve"/>
			<point x="91" y="213" type="line"/>
			<point x="190" y="220"/>
			<point x="248" y="273"/>
			<point x="248" y="341" type="curve" smooth="yes"/>
			<point x="248" y="388"/>
			<point x="220" y="434"/>
			<point x="220" y="473" type="curve" smooth="yes"/>
			<point x="220" y="506"/>
			<point x="241" y="528"/>
			<point x="274" y="531" type="curve" smooth="yes"/>
			<point x="299" y="534" type="line"/>
			<point x="299" y="587" type="line"/>
			<point x="272" y="587" type="line" smooth="yes"/>
			<point x="170" y="587"/>
			<point x="93" y="554"/>
			<point x="93" y="479" type="curve" smooth="yes"/>
			<point x="93" y="417"/>
			<point x="147" y="376"/>
			<point x="147" y="317" type="curve" smooth="yes"/>
			<point x="147" y="289"/>
			<point x="133" y="273"/>
			<point x="56" y="256" type="curve"/>
		</contour>
	</outline>
</glyph>
<glyph name="dieresistonoscmb" format="1">
	<outline>
		<contour>
			<point x="162" y="579" type="curve" smooth="yes"/>
			<point x="195" y="579"/>
			<point x="224" y="600"/>
			<point x="224" y="639" type="curve" smooth="yes"/>
			<point x="224" y="678"/>
			<point x="195" y="700"/>
			<point x="162" y="700" type="curve" smooth="yes"/>
			<point x="131" y="700"/>
			<point x="100" y="678"/>
			<point x="100" y="639" type="curve" smooth="yes"/>
			<point x="100" y="600"/>
			<point x="131" y="579"/>
		</contour>
		<contour>
			<point x="-132" y="579" type="curve" smooth="yes"/>
			<point x="-99" y="579"/>
			<point x="-70" y="600"/>
			<point x="-70" y="639" type="curve" smooth="yes"/>
			<point x="-70" y="678"/>
			<point x="-99" y="700"/>
			<point x="-132" y="700" type="curve" smooth="yes"/>
			<point x="-164" y="700"/>
			<point x="-194" y="678"/>
			<point x="-194" y="639" type="curve" smooth="yes"/>
			<point x="-194" y="600"/>
			<point x="-164" y="579"/>
		</contour>
		<contour>
			<point x="-40" y="556" type="line"/>
			<point x="19" y="545" type="line"/>
			<point x="67" y="653" type="line" smooth="yes"/>
			<point x="85" y="695"/>
			<point x="94" y="725"/>
			<point x="95" y="749" type="curve" smooth="yes"/>
			<point x="96" y="799"/>
			<point x="62" y="810"/>
			<point x="32" y="810" type="curve" smooth="yes"/>
			<point x="-15" y="810"/>
			<point x="-35" y="778"/>
			<point x="-35" y="717" type="curve" smooth="yes"/>
		</contour>
		<contour>
			<point name="_aboveLC" x="0" y="520" type="move"/>
		</contour>
	</outline>
</glyph>
<glyph name="eacute.sups" format="2">
	<advance width="348"/>
	<outline>
		<contour>
			<point x="151" y="775" type="line"/>
			<point x="175" y="756" type="line"/>
			<point x="228" y="796" type="line" smooth="yes"/>
			<point x="279" y="834"/>
			<point x="290" y="850"/>
			<point x="290" y="870" type="curve" smooth="yes"/>
			<point x="290" y="891"/>
			<point x="272" y="905"/>
			<point x="249" y="905" type="curve" smooth="yes"/>
			<point x="223" y="905"/>
			<point x="209" y="890"/>
			<point x="181" y="834" type="curve" smooth="yes"/>
		</contour>
		<component base="e.sups"/>
	</outline>
</glyph>
<glyph name="egrave.sups" format="2">
	<advance width="348"/>
	<outline>
		<contour>
			<point x="223" y="775" type="line"/>
			<point x="193" y="834" type="line" smooth="yes"/>
			<point x="165" y="890"/>
			<point x="151" y="905"/>
			<point x="125" y="905" type="curve" smooth="yes"/>
			<point x="102" y="905"/>
			<point x="84" y="891"/>
			<point x="84" y="870" type="curve" smooth="yes"/>
			<point x="84" y="850"/>
			<point x="95" y="834"/>
			<point x="146" y="796" type="curve" smooth="yes"/>
			<point x="199" y="756" type="line"/>
		</contour>
		<component base="e.sups"/>
	</outline>
</glyph>
<glyph name="eight.cap" format="2">
	<advance width="540"/>
	<outline>
		<contour>
			<point x="33" y="148" type="curve" smooth="yes"/>
			<point x="33" y="49"/>
			<point x="98" y="-16"/>
			<point x="250" y="-16" type="curve" smooth="yes"/>
			<point x="421" y="-16"/>
			<point x="508" y="58"/>
			<point x="508" y="174" type="curve" smooth="yes"/>
			<point x="508" y="270"/>
			<point x="452" y="339"/>
			<point x="341" y="388" type="curve" smooth="yes"/>
			<point x="219" y="442"/>
			<point x="196" y="481"/>
			<point x="196" y="524" type="curve" smooth="yes"/>
			<point x="196" y="579"/>
			<point x="232" y="613"/>
			<point x="272" y="613" type="curve" smooth="yes"/>
			<point x="317" y="613"/>
			<point x="345" y="571"/>
			<point x="345" y="517" type="curve" smooth="yes"/>
			<point x="345" y="470"/>
			<point x="335" y="436"/>
			<point x="291" y="374" type="curve"/>
			<point x="314" y="356" type="line"/>
			<point x="446" y="398"/>
			<point x="490" y="449"/>
			<point x="490" y="511" type="curve" smooth="yes"/>
			<point x="490" y="593"/>
			<point x="429" y="668"/>
			<point x="277" y="668" type="curve" smooth="yes"/>
			<point x="140" y="668"/>
			<point x="41" y="589"/>
			<point x="41" y="472" type="curve" smooth="yes"/>
			<point x="41" y="380"/>
			<point x="98" y="315"/>
			<point x="196" y="274" type="curve" smooth="yes"/>
			<point x="308" y="226"/>
			<point x="341" y="183"/>
			<point x="341" y="128" type="curve" smooth="yes"/>
			<point x="341" y="84"/>
			<point x="319" y="39"/>
			<point x="267" y="39" type="curve" smooth="yes"/>
			<point x="219" y="39"/>
			<point x="184" y="85"/>
			<point x="184" y="150" type="curve" smooth="yes"/>
			<point x="184" y="203"/>
			<point x="200" y="244"/>
			<point x="250" y="297" type="curve"/>
			<point x="225" y="313" type="line"/>
			<point x="102" y="282"/>
			<point x="33" y="222"/>
		</contour>
	</outline>
</glyph>
<glyph name="el.bgr" format="2">
	<advance width="613"/>
	<outline>
		<contour>
			<point x="36" y="0" type="line"/>
			<point x="224" y="0" type="line"/>
			<point x="224" y="47" type="line"/>
			<point x="147" y="62" type="line"/>
			<point x="123" y="62" type="line"/>
			<point x="36" y="47" type="line"/>
		</contour>
		<contour>
			<point x="74" y="0" type="line"/>
			<point x="150" y="0" type="line"/>
			<point x="255" y="316" type="line"/>
			<point x="236" y="316" type="line"/>
			<point x="350" y="0" type="line"/>
			<point x="553" y="0" type="line"/>
			<point x="351" y="487" type="line"/>
			<point x="261" y="487" type="line"/>
		</contour>
		<contour>
			<point x="276" y="0" type="line"/>
			<point x="577" y="0" type="line"/>
			<point x="577" y="47" type="line"/>
			<point x="489" y="65" type="line"/>
			<point x="355" y="65" type="line"/>
			<point x="276" y="47" type="line"/>
		</contour>
	</outline>
</glyph>
<glyph name="f_t" format="2">
	<advance width="697"/>
	<outline>
		<contour>
			<point x="393" y="133" type="curve" smooth="yes"/>
			<point x="393" y="26"/>
			<point x="450" y="-16"/>
			<point x="549" y="-16" type="curve" smooth="yes"/>
			<point x="631" y="-16"/>
			<point x="680" y="17"/>
			<point x="707" y="75" type="curve"/>
			<point x="682" y="98" type="line"/>
			<point x="665" y="85"/>
			<point x="650" y="78"/>
			<point x="633" y="78" type="curve" smooth="yes"/>
			<point x="605" y="78"/>
			<point x="584" y="99"/>
			<point x="584" y="144" type="curve" smooth="yes"/>
			<point x="584" y="447" type="line"/>
			<point x="584" y="629" type="line"/>
			<point x="486" y="629" type="line"/>
			<point x="409" y="450" type="line"/>
			<point x="453" y="487" type="line"/>
			<point x="337" y="487" type="line"/>
			<point x="337" y="412" type="line"/>
			<point x="394" y="412" type="line"/>
			<point x="394" y="240" type="line" smooth="yes"/>
			<point x="394" y="201"/>
			<point x="393" y="172"/>
		</contour>
		<contour>
			<point x="490" y="412" type="line"/>
			<point x="676" y="412" type="line"/>
			<point x="676" y="487" type="line"/>
			<point x="490" y="487" type="line"/>
		</contour>
		<component base="f"/>
	</outline>
</glyph>
<glyph name="four.cap" format="2">
	<advance width="540"/>
	<outline>
		<contour>
			<point x="524" y="124" type="line"/>
			<point x="524" y="254" type="line"/>
			<point x="65" y="254" type="line"/>
			<point x="85" y="219" type="line"/>
			<point x="309" y="566" type="line"/>
			<point x="272" y="566" type="line"/>
			<point x="272" y="0" type="line"/>
			<point x="437" y="0" type="line"/>
			<point x="437" y="665" type="line"/>
			<point x="305" y="665" type="line"/>
			<point x="17" y="231" type="line"/>
			<point x="17" y="124" type="line"/>
		</contour>
	</outline>
</glyph>
<glyph name="four.sc" format="2">
	<advance width="536"/>
	<outline>
		<contour>
			<point x="492" y="101" type="line"/>
			<point x="492" y="209" type="line"/>
			<point x="70" y="209" type="line"/>
			<point x="94" y="178" type="line"/>
			<point x="302" y="462" type="line"/>
			<point x="262" y="462" type="line"/>
			<point x="262" y="0" type="line"/>
			<point x="411" y="0" type="line"/>
			<point x="411" y="545" type="line"/>
			<point x="292" y="545" type="line"/>
			<point x="23" y="190" type="line"/>
			<point x="23" y="101" type="line"/>
		</contour>
	</outline>
</glyph>
<glyph name="ghe.bgr" format="2">
	<advance width="461"/>
	<outline>
		<contour>
			<point x="186" y="-15" type="curve" smooth="yes"/>
			<point x="301" y="-15"/>
			<point x="389" y="25"/>
			<point x="448" y="114" type="curve"/>
			<point x="412" y="152" type="line"/>
			<point x="373" y="116"/>
			<point x="324" y="90"/>
			<point x="280" y="90" type="curve" smooth="yes"/>
			<point x="223" y="90"/>
			<point x="196" y="109"/>
			<point x="196" y="147" type="curve" smooth="yes"/>
			<point x="196" y="178"/>
			<point x="212" y="201"/>
			<point x="273" y="227" type="curve" smooth="yes"/>
			<point x="389" y="276"/>
			<point x="434" y="304"/>
			<point x="434" y="379" type="curve" smooth="yes"/>
			<point x="434" y="441"/>
			<point x="376" y="503"/>
			<point x="257" y="503" type="curve" smooth="yes"/>
			<point x="143" y="503"/>
			<point x="60" y="454"/>
			<point x="25" y="381" type="curve"/>
			<point x="64" y="348" type="line"/>
			<point x="105" y="382"/>
			<point x="149" y="396"/>
			<point x="195" y="396" type="curve" smooth="yes"/>
			<point x="235" y="396"/>
			<point x="265" y="372"/>
			<point x="265" y="343" type="curve" smooth="yes"/>
			<point x="265" y="298"/>
			<point x="242" y="282"/>
			<point x="160" y="253" type="curve" smooth="yes"/>
			<point x="62" y="218"/>
			<point x="22" y="177"/>
			<point x="22" y="108" type="curve" smooth="yes"/>
			<point x="22" y="24"/>
			<point x="87" y="-15"/>
		</contour>
	</outline>
</glyph>
<glyph name="hard.bgr" format="2">
	<advance width="661"/>
	<outline>
		<contour>
			<point x="22" y="298" type="line"/>
			<point x="91" y="298" type="line"/>
			<point x="125" y="487" type="line"/>
			<point x="57" y="430" type="line"/>
			<point x="285" y="430" type="line"/>
			<point x="285" y="487" type="line"/>
			<point x="24" y="487" type="line"/>
		</contour>
		<contour>
			<point x="186" y="30"/>
			<point x="253" y="-16"/>
			<point x="405" y="-16" type="curve" smooth="yes"/>
			<point x="581" y="-16"/>
			<point x="651" y="65"/>
			<point x="651" y="163" type="curve" smooth="yes"/>
			<point x="651" y="241"/>
			<point x="608" y="324"/>
			<point x="471" y="324" type="curve" smooth="yes"/>
			<point x="404" y="324"/>
			<point x="336" y="308"/>
			<point x="285" y="282" type="curve"/>
			<point x="285" y="242" type="line"/>
			<point x="316" y="261"/>
			<point x="364" y="273"/>
			<point x="407" y="273" type="curve" smooth="yes"/>
			<point x="457" y="273"/>
			<point x="481" y="242"/>
			<point x="481" y="144" type="curve" smooth="yes"/>
			<point x="481" y="65"/>
			<point x="457" y="39"/>
			<point x="423" y="39" type="curve" smooth="yes"/>
			<point x="396" y="39"/>
			<point x="376" y="58"/>
			<point x="376" y="121" type="curve" smooth="yes"/>
			<point x="376" y="348" type="line"/>
			<point x="380" y="486" type="line"/>
			<point x="192" y="486" type="line"/>
			<point x="188" y="173" type="line" smooth="yes"/>
		</contour>
		<contour>
			<point x="285" y="416" type="line"/>
			<point x="333" y="416" type="line"/>
			<point x="443" y="436" type="line"/>
			<point x="443" y="487" type="line"/>
			<point x="285" y="487" type="line"/>
		</contour>
	</outline>
</glyph>
<glyph name="idieresis.narrow" format="2">
	<advance width="324"/>
	<outline>
		<contour>
			<point x="89" y="567" type="curve" smooth="yes"/>
			<point x="135" y="567"/>
			<point x="160" y="595"/>
			<point x="160" y="646" type="curve" smooth="yes"/>
			<point x="160" y="696"/>
			<point x="135" y="725"/>
			<point x="89" y="725" type="curve" smooth="yes"/>
			<point x="43" y="725"/>
			<point x="18" y="696"/>
			<point x="18" y="646" type="curve" smooth="yes"/>
			<point x="18" y="595"/>
			<point x="43" y="567"/>
		</contour>
		<contour>
			<point x="249" y="567" type="curve" smooth="yes"/>
			<point x="295" y="567"/>
			<point x="320" y="595"/>
			<point x="320" y="646" type="curve" smooth="yes"/>
			<point x="320" y="696"/>
			<point x="295" y="725"/>
			<point x="249" y="725" type="curve" smooth="yes"/>
			<point x="203" y="725"/>
			<point x="178" y="696"/>
			<point x="178" y="646" type="curve" smooth="yes"/>
			<point x="178" y="595"/>
			<point x="203" y="567"/>
		</contour>
		<component base="dotlessi"/>
	</outline>
</glyph>
<glyph name="nine.lf" format="2">
	<advance width="540"/>
	<outline>
		<contour>
			<point x="198" y="441" type="curve" smooth="yes"/>
			<point x="198" y="547"/>
			<point x="230" y="586"/>
			<point x="267" y="586" type="curve" smooth="yes"/>
			<point x="307" y="586"/>
			<point x="332" y="551"/>
			<point x="332" y="393" type="curve" smooth="yes"/>
			<point x="332" y="184"/>
			<point x="268" y="100"/>
			<point x="71" y="37" type="curve"/>
			<point x="81" y="-20" type="line"/>
			<point x="342" y="13"/>
			<point x="522" y="154"/>
			<point x="522" y="367" type="curve" smooth="yes"/>
			<point x="522" y="539"/>
			<point x="431" y="640"/>
			<point x="260" y="640" type="curve" smooth="yes"/>
			<point x="135" y="640"/>
			<point x="13" y="559"/>
			<point x="13" y="424" type="curve" smooth="yes"/>
			<point x="13" y="302"/>
			<point x="96" y="236"/>
			<point x="213" y="236" type="curve" smooth="yes"/>
			<point x="287" y="236"/>
			<point x="337" y="266"/>
			<point x="367" y="304" type="curve"/>
			<point x="346" y="324" type="line"/>
			<point x="325" y="309"/>
			<point x="308" y="303"/>
			<point x="283" y="303" type="curve" smooth="yes"/>
			<point x="229" y="303"/>
			<point x="198" y="355"/>
		</contour>
	</outline>
</glyph>
<glyph name="one.cap" format="2">
	<advance width="372"/>
	<outline>
		<contour>
			<point x="14" y="608" type="line"/>
			<point x="14" y="543" type="line"/>
			<point x="97" y="551" type="line"/>
			<point x="97" y="207" type="line" smooth="yes"/>
			<point x="97" y="140"/>
			<point x="96" y="69"/>
			<point x="94" y="0" type="curve"/>
			<point x="293" y="0" type="line"/>
			<point x="291" y="69"/>
			<point x="290" y="140"/>
			<point x="290" y="207" type="curve" smooth="yes"/>
			<point x="290" y="512" type="line"/>
			<point x="294" y="654" type="line"/>
			<point x="280" y="664" type="line"/>
		</contour>
		<contour>
			<point x="286" y="72" type="line"/>
			<point x="105" y="72" type="line"/>
			<point x="13" y="51" type="line"/>
			<point x="13" y="0" type="line"/>
			<point x="366" y="0" type="line"/>
			<point x="366" y="51" type="line"/>
		</contour>
	</outline>
</glyph>
<glyph name="one.tosf" format="2">
	<advance width="560"/>
	<outline>
		<contour>
			<point x="74" y="468" type="line"/>
			<point x="74" y="398" type="line"/>
			<point x="178" y="411" type="line"/>
			<point x="178" y="207" type="line" smooth="yes"/>
			<point x="178" y="140"/>
			<point x="177" y="69"/>
			<point x="175" y="0" type="curve"/>
			<point x="374" y="0" type="line"/>
			<point x="372" y="69"/>
			<point x="371" y="140"/>
			<point x="371" y="207" type="curve" smooth="yes"/>
			<point x="371" y="376" type="line"/>
			<point x="375" y="516" type="line"/>
			<point x="358" y="527" type="line"/>
		</contour>
		<contour>
			<point x="365" y="81" type="line"/>
			<point x="185" y="81" type="line"/>
			<point x="52" y="51" type="line"/>
			<point x="52" y="0" type="line"/>
			<point x="487" y="0" type="line"/>
			<point x="487" y="51" type="line"/>
		</contour>
	</outline>
</glyph>
<glyph name="seven.lf" format="2">
	<advance width="540"/>
	<outline>
		<contour>
			<point x="84" y="10" type="line"/>
			<point x="94" y="0" type="line"/>
			<point x="268" y="0" type="line"/>
			<point x="502" y="537" type="line"/>
			<point x="502" y="624" type="line"/>
			<point x="40" y="624" type="line"/>
			<point x="40" y="484" type="line"/>
			<point x="448" y="484" type="line"/>
			<point x="417" y="534" type="line"/>
		</contour>
	</outline>
</glyph>
<glyph name="soft.bgr" format="2">
	<advance width="541"/>
	<outline>
		<contour>
			<point x="66" y="40"/>
			<point x="139" y="-16"/>
			<point x="285" y="-16" type="curve" smooth="yes"/>
			<point x="461" y="-16"/>
			<point x="531" y="65"/>
			<point x="531" y="163" type="curve" smooth="yes"/>
			<point x="531" y="241"/>
			<point x="493" y="324"/>
			<point x="364" y="324" type="curve" smooth="yes"/>
			<point x="310" y="324"/>
			<point x="236" y="287"/>
			<point x="203" y="234" type="curve"/>
			<point x="203" y="202" type="line"/>
			<point x="238" y="241"/>
			<point x="270" y="253"/>
			<point x="298" y="253" type="curve" smooth="yes"/>
			<point x="343" y="253"/>
			<point x="361" y="227"/>
			<point x="361" y="144" type="curve" smooth="yes"/>
			<point x="361" y="65"/>
			<point x="337" y="39"/>
			<point x="308" y="39" type="curve" smooth="yes"/>
			<point x="278" y="39"/>
			<point x="260" y="58"/>
			<point x="260" y="100" type="curve" smooth="yes"/>
			<point x="260" y="345" type="line"/>
			<point x="265" y="487" type="line"/>
			<point x="247" y="498" type="line"/>
			<point x="20" y="463" type="line"/>
			<point x="20" y="418" type="line"/>
			<point x="108" y="398" type="line"/>
			<point x="72" y="435" type="line"/>
			<point x="68" y="173" type="line" smooth="yes"/>
		</contour>
	</outline>
</glyph>
<glyph name="three.lf" format="2">
	<advance width="540"/>
	<outline>
		<contour>
			<point x="167" y="352" type="line"/>
			<point x="167" y="294" type="line"/>
			<point x="197" y="294" type="line" smooth="yes"/>
			<point x="272" y="294"/>
			<point x="315" y="252"/>
			<point x="315" y="171" type="curve" smooth="yes"/>
			<point x="315" y="78"/>
			<point x="270" y="39"/>
			<point x="186" y="39" type="curve" smooth="yes"/>
			<point x="162" y="39"/>
			<point x="149" y="44"/>
			<point x="127" y="54" type="curve"/>
			<point x="178" y="11" type="line"/>
			<point x="169" y="112" type="line" smooth="yes"/>
			<point x="162" y="188"/>
			<point x="133" y="208"/>
			<point x="89" y="208" type="curve" smooth="yes"/>
			<point x="63" y="208"/>
			<point x="34" y="194"/>
			<point x="22" y="159" type="curve"/>
			<point x="22" y="51"/>
			<point x="95" y="-16"/>
			<point x="250" y="-16" type="curve" smooth="yes"/>
			<point x="416" y="-16"/>
			<point x="510" y="59"/>
			<point x="510" y="162" type="curve" smooth="yes"/>
			<point x="510" y="262"/>
			<point x="456" y="322"/>
			<point x="293" y="336" type="curve"/>
			<point x="293" y="320" type="line"/>
			<point x="441" y="338"/>
			<point x="491" y="412"/>
			<point x="491" y="479" type="curve" smooth="yes"/>
			<point x="491" y="569"/>
			<point x="420" y="640"/>
			<point x="260" y="640" type="curve" smooth="yes"/>
			<point x="152" y="640"/>
			<point x="55" y="593"/>
			<point x="55" y="473" type="curve"/>
			<point x="67" y="456"/>
			<point x="89" y="443"/>
			<point x="114" y="443" type="curve" smooth="yes"/>
			<point x="151" y="443"/>
			<point x="188" y="461"/>
			<point x="195" y="515" type="curve" smooth="yes"/>
			<point x="208" y="612" type="line"/>
			<point x="141" y="572" type="line"/>
			<point x="171" y="581"/>
			<point x="195" y="586"/>
			<point x="212" y="586" type="curve" smooth="yes"/>
			<point x="271" y="586"/>
			<point x="306" y="550"/>
			<point x="306" y="472" type="curve" smooth="yes"/>
			<point x="306" y="384"/>
			<point x="263" y="352"/>
			<point x="192" y="352" type="curve" smooth="yes"/>
		</contour>
	</outline>
</glyph>
<glyph name="tonoscmb" format="1">
	<outline>
		<contour>
			<point x="-54" y="553" type="line"/>
			<point x="-1" y="530" type="line"/>
			<point x="79" y="640" type="line" smooth="yes"/>
			<point x="104" y="675"/>
			<point x="120" y="697"/>
			<point x="120" y="726" type="curve" smooth="yes"/>
			<point x="120" y="764"/>
			<point x="91" y="787"/>
			<point x="55" y="787" type="curve" smooth="yes"/>
			<point x="19" y="787"/>
			<point x="-1" y="767"/>
			<point x="-15" y="709" type="curve" smooth="yes"/>
		</contour>
		<contour>
			<point name="_aboveLC" x="0" y="520" type="move"/>
		</contour>
	</outline>
</glyph>
<glyph name="two.cap" format="2">
	<advance width="540"/>
	<outline>
		<contour>
			<point x="38" y="0" type="line"/>
			<point x="502" y="0" type="line"/>
			<point x="502" y="140" type="line"/>
			<point x="119" y="140" type="line"/>
			<point x="135" y="122" type="line"/>
			<point x="170" y="143"/>
			<point x="204" y="165"/>
			<point x="237" y="187" type="curve" smooth="yes"/>
			<point x="401" y="297"/>
			<point x="495" y="383"/>
			<point x="495" y="489" type="curve" smooth="yes"/>
			<point x="495" y="587"/>
			<point x="430" y="668"/>
			<point x="279" y="668" type="curve" smooth="yes"/>
			<point x="145" y="668"/>
			<point x="34" y="607"/>
			<point x="34" y="495" type="curve"/>
			<point x="47" y="468"/>
			<point x="74" y="451"/>
			<point x="105" y="451" type="curve" smooth="yes"/>
			<point x="137" y="451"/>
			<point x="176" y="466"/>
			<point x="186" y="542" type="curve" smooth="yes"/>
			<point x="199" y="640" type="line"/>
			<point x="117" y="592" type="line"/>
			<point x="155" y="610"/>
			<point x="180" y="614"/>
			<point x="211" y="614" type="curve" smooth="yes"/>
			<point x="269" y="614"/>
			<point x="305" y="568"/>
			<point x="305" y="486" type="curve" smooth="yes"/>
			<point x="305" y="386"/>
			<point x="256" y="323"/>
			<point x="165" y="227" type="curve" smooth="yes"/>
			<point x="123" y="184"/>
			<point x="81" y="141"/>
			<point x="38" y="99" type="curve"/>
		</contour>
	</outline>
</glyph>
<glyph name="two.lf" format="2">
	<advance width="540"/>
	<outline>
		<contour>
			<point x="38" y="0" type="line"/>
			<point x="502" y="0" type="line"/>
			<point x="502" y="140" type="line"/>
			<point x="119" y="140" type="line"/>
			<point x="135" y="122" type="line"/>
			<point x="169" y="143"/>
			<point x="204" y="163"/>
			<point x="240" y="184" type="curve" smooth="yes"/>
			<point x="411" y="282"/>
			<point x="495" y="366"/>
			<point x="495" y="466" type="curve" smooth="yes"/>
			<point x="495" y="563"/>
			<point x="430" y="640"/>
			<point x="279" y="640" type="curve" smooth="yes"/>
			<point x="145" y="640"/>
			<point x="34" y="579"/>
			<point x="34" y="467" type="curve"/>
			<point x="47" y="440"/>
			<point x="74" y="423"/>
			<point x="105" y="423" type="curve" smooth="yes"/>
			<point x="137" y="423"/>
			<point x="176" y="438"/>
			<point x="186" y="514" type="curve" smooth="yes"/>
			<point x="199" y="612" type="line"/>
			<point x="117" y="564" type="line"/>
			<point x="155" y="582"/>
			<point x="180" y="586"/>
			<point x="211" y="586" type="curve" smooth="yes"/>
			<point x="269" y="586"/>
			<point x="305" y="544"/>
			<point x="305" y="468" type="curve" smooth="yes"/>
			<point x="305" y="373"/>
			<point x="256" y="315"/>
			<point x="164" y="222" type="curve" smooth="yes"/>
			<point x="124" y="182"/>
			<point x="81" y="141"/>
			<point x="38" y="99" type="curve"/>
		</contour>
	</outline>
</glyph>
<glyph name="ve.bgr" format="2">
	<advance width="587"/>
	<outline>
		<contour>
			<point x="40" y="91"/>
			<point x="120" y="-20"/>
			<point x="293" y="-20" type="curve" smooth="yes"/>
			<point x="468" y="-20"/>
			<point x="557" y="90"/>
			<point x="557" y="189" type="curve" smooth="yes"/>
			<point x="557" y="281"/>
			<point x="500" y="369"/>
			<point x="367" y="390" type="curve"/>
			<point x="299" y="379" type="line"/>
			<point x="353" y="340"/>
			<point x="377" y="284"/>
			<point x="377" y="180" type="curve" smooth="yes"/>
			<point x="377" y="78"/>
			<point x="347" y="37"/>
			<point x="304" y="37" type="curve" smooth="yes"/>
			<point x="257" y="37"/>
			<point x="231" y="69"/>
			<point x="231" y="204" type="curve" smooth="yes"/>
			<point x="231" y="506" type="line" smooth="yes"/>
			<point x="231" y="641"/>
			<point x="260" y="673"/>
			<point x="305" y="673" type="curve" smooth="yes"/>
			<point x="343" y="673"/>
			<point x="369" y="634"/>
			<point x="369" y="564" type="curve" smooth="yes"/>
			<point x="369" y="454"/>
			<point x="328" y="422"/>
			<point x="258" y="404" type="curve" smooth="yes"/>
			<point x="143" y="375" type="line"/>
			<point x="143" y="325" type="line"/>
			<point x="329" y="370" type="line" smooth="yes"/>
			<point x="495" y="410"/>
			<point x="530" y="476"/>
			<point x="530" y="557" type="curve" smooth="yes"/>
			<point x="530" y="662"/>
			<point x="437" y="730"/>
			<point x="314" y="730" type="curve" smooth="yes"/>
			<point x="152" y="730"/>
			<point x="40" y="617"/>
			<point x="40" y="368" type="curve" smooth="yes"/>
			<point x="40" y="312" type="line" smooth="yes"/>
		</contour>
	</outline>
</glyph>
<glyph name="ze.bgr" format="2">
	<advance width="486"/>
	<outline>
		<contour>
			<point x="203" y="-232" type="curve" smooth="yes"/>
			<point x="358" y="-232"/>
			<point x="459" y="-155"/>
			<point x="459" y="-17" type="curve" smooth="yes"/>
			<point x="459" y="63"/>
			<point x="423" y="156"/>
			<point x="230" y="163" type="curve"/>
			<point x="228" y="153" type="line"/>
			<point x="377" y="152"/>
			<point x="444" y="230"/>
			<point x="444" y="324" type="curve" smooth="yes"/>
			<point x="444" y="440"/>
			<point x="362" y="503"/>
			<point x="215" y="503" type="curve" smooth="yes"/>
			<point x="147" y="503"/>
			<point x="92" y="496"/>
			<point x="32" y="467" type="curve"/>
			<point x="42" y="320" type="line"/>
			<point x="137" y="320" type="line"/>
			<point x="167" y="482" type="line"/>
			<point x="102" y="464" type="line"/>
			<point x="102" y="422" type="line"/>
			<point x="140" y="443"/>
			<point x="159" y="448"/>
			<point x="199" y="448" type="curve" smooth="yes"/>
			<point x="254" y="448"/>
			<point x="289" y="406"/>
			<point x="289" y="328" type="curve" smooth="yes"/>
			<point x="289" y="251"/>
			<point x="252" y="187"/>
			<point x="177" y="187" type="curve" smooth="yes"/>
			<point x="125" y="187" type="line"/>
			<point x="125" y="123" type="line"/>
			<point x="172" y="123" type="line" smooth="yes"/>
			<point x="256" y="123"/>
			<point x="287" y="54"/>
			<point x="287" y="-21" type="curve" smooth="yes"/>
			<point x="287" y="-118"/>
			<point x="254" y="-177"/>
			<point x="185" y="-177" type="curve" smooth="yes"/>
			<point x="166" y="-177"/>
			<point x="140" y="-176"/>
			<point x="116" y="-169" type="curve"/>
			<point x="166" y="-208" type="line"/>
			<point x="149" y="-145" type="line" smooth="yes"/>
			<point x="125" y="-55"/>
			<point x="108" y="-26"/>
			<point x="67" y="-26" type="curve" smooth="yes"/>
			<point x="28" y="-26"/>
			<point x="4" y="-43"/>
			<point x="-12" y="-85" type="curve"/>
			<point x="-10" y="-171"/>
			<point x="72" y="-232"/>
		</contour>
	</outline>
</glyph>
<glyph name="zero.lfslash" format="2">
	<advance width="540"/>
	<outline>
		<contour>
			<point x="-2" y="48" type="line"/>
			<point x="38" y="14" type="line"/>
			<point x="146" y="137" type="line"/>
			<point x="117" y="183" type="line"/>
		</contour>
		<contour>
			<point x="156" y="127" type="line"/>
			<point x="411" y="454" type="line"/>
			<point x="384" y="503" type="line"/>
			<point x="127" y="173" type="line"/>
		</contour>
		<contour>
			<point x="421" y="444" type="line"/>
			<point x="542" y="584" type="line"/>
			<point x="503" y="617" type="line"/>
			<point x="394" y="493" type="line"/>
		</contour>
		<component base="zero.lf"/>
	</outline>
</glyph>
